<mxfile host="app.diagrams.net" modified="2023-02-24T11:46:26.745Z" agent="5.0 (Windows NT 10.0; Win64; x64) AppleWebKit/537.36 (KHTML, like Gecko) Chrome/109.0.0.0 Safari/537.36" etag="rZEEgrUDVhyc9znLz387" version="20.8.21" type="github">
  <diagram name="第 1 页" id="7vKhMJO-kykulenLBiTj">
    <mxGraphModel dx="2544" dy="581" grid="1" gridSize="10" guides="1" tooltips="1" connect="1" arrows="1" fold="1" page="0" pageScale="1" pageWidth="827" pageHeight="1169" math="0" shadow="0">
      <root>
        <mxCell id="0" />
        <mxCell id="1" parent="0" />
        <mxCell id="_6AYf45geY-DSHWMHWZf-1" value="" style="rounded=0;whiteSpace=wrap;html=1;sketch=0;fillStyle=auto;strokeWidth=1;fontSize=20;aspect=fixed;fillColor=default;" vertex="1" parent="1">
          <mxGeometry x="452.65999999999997" y="5790" width="1053.33" height="790" as="geometry" />
        </mxCell>
        <mxCell id="_6AYf45geY-DSHWMHWZf-2" value="" style="rounded=0;whiteSpace=wrap;html=1;sketch=0;fillStyle=auto;strokeWidth=1;fontSize=20;aspect=fixed;" vertex="1" parent="1">
          <mxGeometry x="316" y="419" width="966.66" height="725" as="geometry" />
        </mxCell>
        <mxCell id="_6AYf45geY-DSHWMHWZf-3" value="" style="whiteSpace=wrap;html=1;aspect=fixed;labelBackgroundColor=default;strokeColor=default;fontSize=13;fillColor=default;" vertex="1" parent="1">
          <mxGeometry x="774.6600000000001" y="585" width="80" height="80" as="geometry" />
        </mxCell>
        <mxCell id="_6AYf45geY-DSHWMHWZf-4" value="" style="whiteSpace=wrap;html=1;aspect=fixed;labelBackgroundColor=default;strokeColor=default;fontSize=13;fillColor=default;" vertex="1" parent="1">
          <mxGeometry x="893.9100000000001" y="585" width="80" height="80" as="geometry" />
        </mxCell>
        <mxCell id="_6AYf45geY-DSHWMHWZf-5" value="" style="whiteSpace=wrap;html=1;aspect=fixed;labelBackgroundColor=default;strokeColor=default;fontSize=13;fillColor=default;" vertex="1" parent="1">
          <mxGeometry x="1013.6600000000001" y="585" width="80" height="80" as="geometry" />
        </mxCell>
        <mxCell id="_6AYf45geY-DSHWMHWZf-6" value="" style="whiteSpace=wrap;html=1;aspect=fixed;labelBackgroundColor=default;strokeColor=default;fontSize=13;fillColor=default;" vertex="1" parent="1">
          <mxGeometry x="774.9100000000001" y="705" width="80" height="80" as="geometry" />
        </mxCell>
        <mxCell id="_6AYf45geY-DSHWMHWZf-7" value="" style="whiteSpace=wrap;html=1;aspect=fixed;labelBackgroundColor=default;strokeColor=default;fontSize=13;fillColor=default;" vertex="1" parent="1">
          <mxGeometry x="894.1600000000001" y="705" width="80" height="80" as="geometry" />
        </mxCell>
        <mxCell id="_6AYf45geY-DSHWMHWZf-8" value="" style="whiteSpace=wrap;html=1;aspect=fixed;labelBackgroundColor=default;strokeColor=default;fontSize=13;fillColor=default;" vertex="1" parent="1">
          <mxGeometry x="1012.9100000000001" y="705" width="80" height="80" as="geometry" />
        </mxCell>
        <mxCell id="_6AYf45geY-DSHWMHWZf-9" value="" style="whiteSpace=wrap;html=1;aspect=fixed;labelBackgroundColor=default;strokeColor=default;fontSize=13;fillColor=default;" vertex="1" parent="1">
          <mxGeometry x="774.6600000000001" y="825" width="80" height="80" as="geometry" />
        </mxCell>
        <mxCell id="_6AYf45geY-DSHWMHWZf-10" value="" style="whiteSpace=wrap;html=1;aspect=fixed;labelBackgroundColor=default;strokeColor=default;fontSize=13;fillColor=default;" vertex="1" parent="1">
          <mxGeometry x="893.9100000000001" y="825" width="80" height="80" as="geometry" />
        </mxCell>
        <mxCell id="_6AYf45geY-DSHWMHWZf-11" value="" style="whiteSpace=wrap;html=1;aspect=fixed;labelBackgroundColor=default;strokeColor=default;fontSize=13;fillColor=default;" vertex="1" parent="1">
          <mxGeometry x="1012.6600000000001" y="825" width="80" height="80" as="geometry" />
        </mxCell>
        <mxCell id="_6AYf45geY-DSHWMHWZf-12" value="内存控制器" style="rounded=0;whiteSpace=wrap;html=1;labelBackgroundColor=default;strokeColor=default;fontSize=13;fillColor=default;" vertex="1" parent="1">
          <mxGeometry x="771.6600000000001" y="535" width="442" height="30" as="geometry" />
        </mxCell>
        <mxCell id="_6AYf45geY-DSHWMHWZf-13" value="" style="whiteSpace=wrap;html=1;aspect=fixed;labelBackgroundColor=default;strokeColor=default;fontSize=13;fillColor=default;" vertex="1" parent="1">
          <mxGeometry x="1135.16" y="585" width="80" height="80" as="geometry" />
        </mxCell>
        <mxCell id="_6AYf45geY-DSHWMHWZf-14" value="" style="whiteSpace=wrap;html=1;aspect=fixed;labelBackgroundColor=default;strokeColor=default;fontSize=13;fillColor=default;" vertex="1" parent="1">
          <mxGeometry x="1135.16" y="705" width="80" height="80" as="geometry" />
        </mxCell>
        <mxCell id="_6AYf45geY-DSHWMHWZf-15" value="" style="whiteSpace=wrap;html=1;aspect=fixed;labelBackgroundColor=default;strokeColor=default;fontSize=13;fillColor=default;" vertex="1" parent="1">
          <mxGeometry x="1135.16" y="825" width="80" height="80" as="geometry" />
        </mxCell>
        <mxCell id="_6AYf45geY-DSHWMHWZf-16" value="" style="whiteSpace=wrap;html=1;aspect=fixed;labelBackgroundColor=default;strokeColor=default;fontSize=13;fillColor=default;" vertex="1" parent="1">
          <mxGeometry x="774.6600000000001" y="945" width="80" height="80" as="geometry" />
        </mxCell>
        <mxCell id="_6AYf45geY-DSHWMHWZf-17" value="" style="whiteSpace=wrap;html=1;aspect=fixed;labelBackgroundColor=default;strokeColor=default;fontSize=13;fillColor=default;" vertex="1" parent="1">
          <mxGeometry x="894.1600000000001" y="945" width="80" height="80" as="geometry" />
        </mxCell>
        <mxCell id="_6AYf45geY-DSHWMHWZf-18" value="" style="whiteSpace=wrap;html=1;aspect=fixed;labelBackgroundColor=default;strokeColor=default;fontSize=13;fillColor=default;" vertex="1" parent="1">
          <mxGeometry x="1013.6600000000001" y="945" width="80" height="80" as="geometry" />
        </mxCell>
        <mxCell id="_6AYf45geY-DSHWMHWZf-19" value="" style="whiteSpace=wrap;html=1;aspect=fixed;labelBackgroundColor=default;strokeColor=default;fontSize=13;fillColor=default;" vertex="1" parent="1">
          <mxGeometry x="1135.16" y="945" width="80" height="80" as="geometry" />
        </mxCell>
        <mxCell id="_6AYf45geY-DSHWMHWZf-20" value="" style="whiteSpace=wrap;html=1;aspect=fixed;labelBackgroundColor=default;strokeColor=default;fontSize=13;fillColor=default;" vertex="1" parent="1">
          <mxGeometry x="452.65999999999997" y="665" width="240" height="240" as="geometry" />
        </mxCell>
        <mxCell id="_6AYf45geY-DSHWMHWZf-21" value="L1 I/D Cache" style="rounded=0;whiteSpace=wrap;html=1;labelBackgroundColor=default;strokeColor=default;fontSize=13;fillColor=default;" vertex="1" parent="1">
          <mxGeometry x="469.65999999999997" y="765" width="94" height="20" as="geometry" />
        </mxCell>
        <mxCell id="_6AYf45geY-DSHWMHWZf-22" value="NoC路由器" style="rounded=0;whiteSpace=wrap;html=1;labelBackgroundColor=default;strokeColor=default;fontSize=13;fillColor=default;" vertex="1" parent="1">
          <mxGeometry x="594.4100000000001" y="675" width="81" height="70" as="geometry" />
        </mxCell>
        <mxCell id="_6AYf45geY-DSHWMHWZf-23" value="核心" style="rounded=0;whiteSpace=wrap;html=1;labelBackgroundColor=default;strokeColor=default;fontSize=13;fillColor=default;" vertex="1" parent="1">
          <mxGeometry x="469.65999999999997" y="675" width="94" height="70" as="geometry" />
        </mxCell>
        <mxCell id="_6AYf45geY-DSHWMHWZf-24" value="L2 Cache" style="rounded=0;whiteSpace=wrap;html=1;labelBackgroundColor=default;strokeColor=default;fontSize=13;fillColor=default;" vertex="1" parent="1">
          <mxGeometry x="469.65999999999997" y="795" width="94" height="40" as="geometry" />
        </mxCell>
        <mxCell id="_6AYf45geY-DSHWMHWZf-25" value="LLC" style="rounded=0;whiteSpace=wrap;html=1;labelBackgroundColor=default;strokeColor=default;fontSize=13;fillColor=default;" vertex="1" parent="1">
          <mxGeometry x="469.65999999999997" y="845" width="204" height="50" as="geometry" />
        </mxCell>
        <mxCell id="_6AYf45geY-DSHWMHWZf-26" value="directory" style="rounded=0;whiteSpace=wrap;html=1;labelBackgroundColor=default;strokeColor=default;fontSize=13;fillColor=default;" vertex="1" parent="1">
          <mxGeometry x="594.4100000000001" y="765" width="79.25" height="70" as="geometry" />
        </mxCell>
        <mxCell id="_6AYf45geY-DSHWMHWZf-27" style="edgeStyle=none;rounded=0;orthogonalLoop=1;jettySize=auto;html=1;exitX=0.5;exitY=1;exitDx=0;exitDy=0;entryX=0.492;entryY=0.75;entryDx=0;entryDy=0;entryPerimeter=0;fontSize=13;endArrow=classic;endFill=1;" edge="1" parent="1" source="_6AYf45geY-DSHWMHWZf-3" target="_6AYf45geY-DSHWMHWZf-6">
          <mxGeometry relative="1" as="geometry" />
        </mxCell>
        <mxCell id="_6AYf45geY-DSHWMHWZf-28" style="edgeStyle=none;rounded=0;orthogonalLoop=1;jettySize=auto;html=1;exitX=1;exitY=0.75;exitDx=0;exitDy=0;fontSize=13;endArrow=classic;endFill=1;" edge="1" parent="1" source="_6AYf45geY-DSHWMHWZf-3">
          <mxGeometry relative="1" as="geometry">
            <mxPoint x="1113.66" y="955" as="targetPoint" />
          </mxGeometry>
        </mxCell>
        <mxCell id="_6AYf45geY-DSHWMHWZf-29" style="edgeStyle=none;rounded=0;orthogonalLoop=1;jettySize=auto;html=1;exitX=1;exitY=0.5;exitDx=0;exitDy=0;fontSize=13;endArrow=classic;endFill=1;" edge="1" parent="1" source="_6AYf45geY-DSHWMHWZf-3">
          <mxGeometry relative="1" as="geometry">
            <mxPoint x="1113.66" y="805" as="targetPoint" />
          </mxGeometry>
        </mxCell>
        <mxCell id="_6AYf45geY-DSHWMHWZf-30" style="edgeStyle=none;rounded=0;orthogonalLoop=1;jettySize=auto;html=1;exitX=1;exitY=0.25;exitDx=0;exitDy=0;fontSize=13;endArrow=classic;endFill=1;" edge="1" parent="1" source="_6AYf45geY-DSHWMHWZf-3">
          <mxGeometry relative="1" as="geometry">
            <mxPoint x="1083.66" y="613.5130111524122" as="targetPoint" />
          </mxGeometry>
        </mxCell>
        <mxCell id="_6AYf45geY-DSHWMHWZf-31" style="edgeStyle=none;rounded=0;orthogonalLoop=1;jettySize=auto;html=1;exitX=0.75;exitY=1;exitDx=0;exitDy=0;fontSize=13;endArrow=classic;endFill=1;" edge="1" parent="1" source="_6AYf45geY-DSHWMHWZf-3">
          <mxGeometry relative="1" as="geometry">
            <mxPoint x="893.6600000000001" y="935" as="targetPoint" />
          </mxGeometry>
        </mxCell>
        <mxCell id="_6AYf45geY-DSHWMHWZf-32" value="" style="endArrow=none;dashed=1;html=1;dashPattern=1 3;strokeWidth=2;rounded=0;strokeColor=default;fontSize=15;endSize=6;elbow=vertical;entryX=0;entryY=0;entryDx=0;entryDy=0;" edge="1" parent="1" target="_6AYf45geY-DSHWMHWZf-3">
          <mxGeometry width="50" height="50" relative="1" as="geometry">
            <mxPoint x="413.65999999999997" y="585" as="sourcePoint" />
            <mxPoint x="723.6600000000001" y="585" as="targetPoint" />
          </mxGeometry>
        </mxCell>
        <mxCell id="_6AYf45geY-DSHWMHWZf-33" value="" style="endArrow=none;dashed=1;html=1;dashPattern=1 3;strokeWidth=2;rounded=0;strokeColor=default;fontSize=15;endSize=6;elbow=vertical;" edge="1" parent="1">
          <mxGeometry width="50" height="50" relative="1" as="geometry">
            <mxPoint x="413.65999999999997" y="585" as="sourcePoint" />
            <mxPoint x="413.65999999999997" y="985" as="targetPoint" />
          </mxGeometry>
        </mxCell>
        <mxCell id="_6AYf45geY-DSHWMHWZf-34" value="" style="endArrow=none;dashed=1;html=1;dashPattern=1 3;strokeWidth=2;rounded=0;strokeColor=default;fontSize=15;endSize=6;elbow=vertical;" edge="1" parent="1">
          <mxGeometry width="50" height="50" relative="1" as="geometry">
            <mxPoint x="413.65999999999997" y="985" as="sourcePoint" />
            <mxPoint x="733.6600000000001" y="985" as="targetPoint" />
          </mxGeometry>
        </mxCell>
        <mxCell id="_6AYf45geY-DSHWMHWZf-35" value="" style="endArrow=none;dashed=1;html=1;dashPattern=1 3;strokeWidth=2;rounded=0;strokeColor=default;fontSize=15;endSize=6;elbow=vertical;exitX=0;exitY=1;exitDx=0;exitDy=0;" edge="1" parent="1" source="_6AYf45geY-DSHWMHWZf-3">
          <mxGeometry width="50" height="50" relative="1" as="geometry">
            <mxPoint x="213.65999999999997" y="935" as="sourcePoint" />
            <mxPoint x="733.6600000000001" y="985" as="targetPoint" />
          </mxGeometry>
        </mxCell>
        <mxCell id="_6AYf45geY-DSHWMHWZf-36" value="" style="rounded=0;whiteSpace=wrap;html=1;sketch=0;fillStyle=auto;strokeWidth=1;fontSize=20;aspect=fixed;" vertex="1" parent="1">
          <mxGeometry x="2039.9999999999998" y="3060" width="966.66" height="725" as="geometry" />
        </mxCell>
        <mxCell id="_6AYf45geY-DSHWMHWZf-37" value="" style="rounded=0;whiteSpace=wrap;html=1;sketch=0;fillStyle=auto;strokeWidth=1;fontSize=20;aspect=fixed;fillColor=default;" vertex="1" parent="1">
          <mxGeometry x="1900" y="3976" width="953.33" height="715" as="geometry" />
        </mxCell>
        <mxCell id="_6AYf45geY-DSHWMHWZf-38" value="CA 1" style="rounded=0;whiteSpace=wrap;html=1;sketch=0;fillStyle=auto;strokeWidth=1;fontSize=20;" vertex="1" parent="1">
          <mxGeometry x="316.16999999999985" y="3666" width="107" height="56" as="geometry" />
        </mxCell>
        <mxCell id="_6AYf45geY-DSHWMHWZf-39" value="CA 2" style="rounded=0;whiteSpace=wrap;html=1;sketch=0;fillStyle=auto;strokeWidth=1;fontSize=20;" vertex="1" parent="1">
          <mxGeometry x="473.91999999999985" y="3666" width="107" height="56" as="geometry" />
        </mxCell>
        <mxCell id="_6AYf45geY-DSHWMHWZf-40" value="CA 3" style="rounded=0;whiteSpace=wrap;html=1;sketch=0;fillStyle=auto;strokeWidth=1;fontSize=20;" vertex="1" parent="1">
          <mxGeometry x="636.9199999999998" y="3666" width="107" height="56" as="geometry" />
        </mxCell>
        <mxCell id="_6AYf45geY-DSHWMHWZf-41" value="CA 4" style="rounded=0;whiteSpace=wrap;html=1;sketch=0;fillStyle=auto;strokeWidth=1;fontSize=20;" vertex="1" parent="1">
          <mxGeometry x="786.4199999999998" y="3666" width="107" height="56" as="geometry" />
        </mxCell>
        <mxCell id="_6AYf45geY-DSHWMHWZf-42" value="HA" style="rounded=0;whiteSpace=wrap;html=1;sketch=0;fillStyle=auto;strokeWidth=1;fontSize=20;" vertex="1" parent="1">
          <mxGeometry x="944.9199999999998" y="3666" width="107" height="56" as="geometry" />
        </mxCell>
        <mxCell id="_6AYf45geY-DSHWMHWZf-43" value="" style="endArrow=none;html=1;rounded=0;fontSize=18;strokeWidth=3;exitX=0.5;exitY=1;exitDx=0;exitDy=0;" edge="1" parent="1" source="_6AYf45geY-DSHWMHWZf-38">
          <mxGeometry width="50" height="50" relative="1" as="geometry">
            <mxPoint x="305.16999999999985" y="3876" as="sourcePoint" />
            <mxPoint x="370.16999999999985" y="4146" as="targetPoint" />
          </mxGeometry>
        </mxCell>
        <mxCell id="_6AYf45geY-DSHWMHWZf-44" value="" style="endArrow=none;html=1;rounded=0;fontSize=18;strokeWidth=3;exitX=0.5;exitY=1;exitDx=0;exitDy=0;" edge="1" parent="1" source="_6AYf45geY-DSHWMHWZf-39">
          <mxGeometry width="50" height="50" relative="1" as="geometry">
            <mxPoint x="539.6699999999998" y="3736" as="sourcePoint" />
            <mxPoint x="527.9199999999998" y="4146" as="targetPoint" />
          </mxGeometry>
        </mxCell>
        <mxCell id="_6AYf45geY-DSHWMHWZf-45" value="" style="endArrow=none;html=1;rounded=0;fontSize=18;strokeWidth=3;exitX=0.5;exitY=1;exitDx=0;exitDy=0;" edge="1" parent="1" source="_6AYf45geY-DSHWMHWZf-40">
          <mxGeometry width="50" height="50" relative="1" as="geometry">
            <mxPoint x="704.9199999999998" y="4036" as="sourcePoint" />
            <mxPoint x="690.9199999999998" y="4146" as="targetPoint" />
          </mxGeometry>
        </mxCell>
        <mxCell id="_6AYf45geY-DSHWMHWZf-46" value="" style="endArrow=none;html=1;rounded=0;fontSize=18;strokeWidth=3;exitX=0.5;exitY=1;exitDx=0;exitDy=0;" edge="1" parent="1" source="_6AYf45geY-DSHWMHWZf-41">
          <mxGeometry width="50" height="50" relative="1" as="geometry">
            <mxPoint x="803.4199999999998" y="3896" as="sourcePoint" />
            <mxPoint x="839.4199999999998" y="4146" as="targetPoint" />
          </mxGeometry>
        </mxCell>
        <mxCell id="_6AYf45geY-DSHWMHWZf-47" value="" style="endArrow=none;html=1;rounded=0;fontSize=18;strokeWidth=3;exitX=0.5;exitY=1;exitDx=0;exitDy=0;" edge="1" parent="1" source="_6AYf45geY-DSHWMHWZf-42">
          <mxGeometry width="50" height="50" relative="1" as="geometry">
            <mxPoint x="921.4199999999998" y="3966" as="sourcePoint" />
            <mxPoint x="998.4199999999998" y="4146" as="targetPoint" />
          </mxGeometry>
        </mxCell>
        <mxCell id="_6AYf45geY-DSHWMHWZf-48" value="" style="endArrow=classic;html=1;rounded=0;fontSize=16;" edge="1" parent="1">
          <mxGeometry width="50" height="50" relative="1" as="geometry">
            <mxPoint x="258.91999999999985" y="3746" as="sourcePoint" />
            <mxPoint x="258.91999999999985" y="3886" as="targetPoint" />
          </mxGeometry>
        </mxCell>
        <mxCell id="_6AYf45geY-DSHWMHWZf-49" value="时间线" style="text;html=1;align=center;verticalAlign=middle;resizable=0;points=[];autosize=1;strokeColor=none;fillColor=none;fontSize=16;" vertex="1" parent="1">
          <mxGeometry x="192.91999999999985" y="3806" width="70" height="30" as="geometry" />
        </mxCell>
        <mxCell id="_6AYf45geY-DSHWMHWZf-50" value="" style="endArrow=classic;html=1;rounded=0;fontSize=16;exitX=0.5;exitY=1;exitDx=0;exitDy=0;" edge="1" parent="1" source="_6AYf45geY-DSHWMHWZf-38">
          <mxGeometry width="50" height="50" relative="1" as="geometry">
            <mxPoint x="378.91999999999985" y="3746" as="sourcePoint" />
            <mxPoint x="998.9199999999998" y="3806" as="targetPoint" />
          </mxGeometry>
        </mxCell>
        <mxCell id="_6AYf45geY-DSHWMHWZf-51" value="&lt;span style=&quot;font-size: 13px;&quot;&gt;GET_SharedData&lt;br&gt;&lt;/span&gt;" style="text;html=1;align=center;verticalAlign=middle;resizable=0;points=[];autosize=1;strokeColor=none;fillColor=none;fontSize=16;labelBackgroundColor=default;" vertex="1" parent="1">
          <mxGeometry x="396.66999999999985" y="3722" width="130" height="30" as="geometry" />
        </mxCell>
        <mxCell id="_6AYf45geY-DSHWMHWZf-52" value="" style="endArrow=classic;html=1;rounded=0;fontSize=13;exitX=0.5;exitY=1;exitDx=0;exitDy=0;" edge="1" parent="1" source="_6AYf45geY-DSHWMHWZf-39">
          <mxGeometry width="50" height="50" relative="1" as="geometry">
            <mxPoint x="698.9199999999998" y="3876" as="sourcePoint" />
            <mxPoint x="998.9199999999998" y="3786" as="targetPoint" />
          </mxGeometry>
        </mxCell>
        <mxCell id="_6AYf45geY-DSHWMHWZf-53" value="&lt;span style=&quot;font-size: 13px;&quot;&gt;PUT_SharedData&lt;br&gt;&lt;/span&gt;" style="text;html=1;align=center;verticalAlign=middle;resizable=0;points=[];autosize=1;strokeColor=none;fillColor=none;fontSize=16;labelBackgroundColor=default;" vertex="1" parent="1">
          <mxGeometry x="558.9199999999998" y="3722" width="130" height="30" as="geometry" />
        </mxCell>
        <mxCell id="_6AYf45geY-DSHWMHWZf-54" value="I" style="text;html=1;align=center;verticalAlign=middle;resizable=0;points=[];autosize=1;strokeColor=none;fillColor=none;fontSize=13;" vertex="1" parent="1">
          <mxGeometry x="287.16999999999985" y="3679" width="30" height="30" as="geometry" />
        </mxCell>
        <mxCell id="_6AYf45geY-DSHWMHWZf-55" value="F" style="text;html=1;align=center;verticalAlign=middle;resizable=0;points=[];autosize=1;strokeColor=none;fillColor=none;fontSize=13;" vertex="1" parent="1">
          <mxGeometry x="443.91999999999985" y="3679" width="30" height="30" as="geometry" />
        </mxCell>
        <mxCell id="_6AYf45geY-DSHWMHWZf-56" value="I" style="text;html=1;align=center;verticalAlign=middle;resizable=0;points=[];autosize=1;strokeColor=none;fillColor=none;fontSize=13;" vertex="1" parent="1">
          <mxGeometry x="606.9199999999998" y="3679" width="30" height="30" as="geometry" />
        </mxCell>
        <mxCell id="_6AYf45geY-DSHWMHWZf-57" value="S" style="text;html=1;align=center;verticalAlign=middle;resizable=0;points=[];autosize=1;strokeColor=none;fillColor=none;fontSize=13;" vertex="1" parent="1">
          <mxGeometry x="757.9199999999998" y="3679" width="30" height="30" as="geometry" />
        </mxCell>
        <mxCell id="_6AYf45geY-DSHWMHWZf-58" value="S" style="text;html=1;align=center;verticalAlign=middle;resizable=0;points=[];autosize=1;strokeColor=none;fillColor=none;fontSize=13;" vertex="1" parent="1">
          <mxGeometry x="914.9199999999998" y="3679" width="30" height="30" as="geometry" />
        </mxCell>
        <mxCell id="_6AYf45geY-DSHWMHWZf-59" value="&lt;span style=&quot;font-size: 13px;&quot;&gt;F =&amp;gt; S&lt;br&gt;&lt;/span&gt;" style="text;html=1;align=center;verticalAlign=middle;resizable=0;points=[];autosize=1;strokeColor=none;fillColor=none;fontSize=16;labelBackgroundColor=default;" vertex="1" parent="1">
          <mxGeometry x="833.9199999999998" y="4030" width="57" height="31" as="geometry" />
        </mxCell>
        <mxCell id="_6AYf45geY-DSHWMHWZf-60" value="" style="endArrow=classic;html=1;rounded=0;fontSize=13;" edge="1" parent="1">
          <mxGeometry width="50" height="50" relative="1" as="geometry">
            <mxPoint x="1000" y="3990" as="sourcePoint" />
            <mxPoint x="530" y="4030" as="targetPoint" />
          </mxGeometry>
        </mxCell>
        <mxCell id="_6AYf45geY-DSHWMHWZf-61" value="&lt;span style=&quot;font-size: 13px;&quot;&gt;FWD_SharedData&lt;br&gt;&lt;/span&gt;" style="text;html=1;align=center;verticalAlign=middle;resizable=0;points=[];autosize=1;strokeColor=none;fillColor=none;fontSize=16;labelBackgroundColor=default;" vertex="1" parent="1">
          <mxGeometry x="545.4099999999999" y="4010" width="130" height="30" as="geometry" />
        </mxCell>
        <mxCell id="_6AYf45geY-DSHWMHWZf-62" value="" style="endArrow=classic;html=1;rounded=0;fontSize=13;" edge="1" parent="1">
          <mxGeometry width="50" height="50" relative="1" as="geometry">
            <mxPoint x="1000" y="3790" as="sourcePoint" />
            <mxPoint x="370" y="3840" as="targetPoint" />
          </mxGeometry>
        </mxCell>
        <mxCell id="_6AYf45geY-DSHWMHWZf-63" value="&lt;span style=&quot;font-size: 13px;&quot;&gt;PROBE&lt;br&gt;&lt;/span&gt;" style="text;html=1;align=center;verticalAlign=middle;resizable=0;points=[];autosize=1;strokeColor=none;fillColor=none;fontSize=16;labelBackgroundColor=default;" vertex="1" parent="1">
          <mxGeometry x="396.66999999999985" y="3820" width="70" height="30" as="geometry" />
        </mxCell>
        <mxCell id="_6AYf45geY-DSHWMHWZf-64" value="" style="endArrow=classic;html=1;rounded=0;fontSize=13;" edge="1" parent="1">
          <mxGeometry width="50" height="50" relative="1" as="geometry">
            <mxPoint x="370" y="4100" as="sourcePoint" />
            <mxPoint x="1000" y="4110" as="targetPoint" />
          </mxGeometry>
        </mxCell>
        <mxCell id="_6AYf45geY-DSHWMHWZf-65" value="&lt;span style=&quot;font-size: 13px;&quot;&gt;I =&amp;gt; F&lt;br&gt;&lt;/span&gt;" style="text;html=1;align=center;verticalAlign=middle;resizable=0;points=[];autosize=1;strokeColor=none;fillColor=none;fontSize=16;labelBackgroundColor=default;" vertex="1" parent="1">
          <mxGeometry x="313.99999999999983" y="4080" width="52" height="31" as="geometry" />
        </mxCell>
        <mxCell id="_6AYf45geY-DSHWMHWZf-66" value="收集确认消息，&lt;br&gt;记录新的转发者" style="text;html=1;align=center;verticalAlign=middle;resizable=0;points=[];autosize=1;strokeColor=none;fillColor=none;fontSize=13;" vertex="1" parent="1">
          <mxGeometry x="1033.9199999999998" y="3884.5" width="110" height="40" as="geometry" />
        </mxCell>
        <mxCell id="_6AYf45geY-DSHWMHWZf-67" value="" style="endArrow=classic;html=1;rounded=0;fontSize=13;" edge="1" parent="1">
          <mxGeometry width="50" height="50" relative="1" as="geometry">
            <mxPoint x="1000" y="3790" as="sourcePoint" />
            <mxPoint x="690" y="3830" as="targetPoint" />
          </mxGeometry>
        </mxCell>
        <mxCell id="_6AYf45geY-DSHWMHWZf-68" value="" style="endArrow=classic;html=1;rounded=0;fontSize=13;" edge="1" parent="1">
          <mxGeometry width="50" height="50" relative="1" as="geometry">
            <mxPoint x="1000" y="3790" as="sourcePoint" />
            <mxPoint x="840" y="3830" as="targetPoint" />
          </mxGeometry>
        </mxCell>
        <mxCell id="_6AYf45geY-DSHWMHWZf-69" value="&lt;span style=&quot;font-size: 13px;&quot;&gt;PROBE&lt;br&gt;&lt;/span&gt;" style="text;html=1;align=center;verticalAlign=middle;resizable=0;points=[];autosize=1;strokeColor=none;fillColor=none;fontSize=16;labelBackgroundColor=default;" vertex="1" parent="1">
          <mxGeometry x="723.92" y="3806" width="70" height="30" as="geometry" />
        </mxCell>
        <mxCell id="_6AYf45geY-DSHWMHWZf-70" value="&lt;span style=&quot;font-size: 13px;&quot;&gt;PROBE&lt;br&gt;&lt;/span&gt;" style="text;html=1;align=center;verticalAlign=middle;resizable=0;points=[];autosize=1;strokeColor=none;fillColor=none;fontSize=16;labelBackgroundColor=default;" vertex="1" parent="1">
          <mxGeometry x="846.9200000000001" y="3806" width="70" height="30" as="geometry" />
        </mxCell>
        <mxCell id="_6AYf45geY-DSHWMHWZf-71" value="" style="endArrow=classic;html=1;rounded=0;fontSize=13;" edge="1" parent="1">
          <mxGeometry width="50" height="50" relative="1" as="geometry">
            <mxPoint x="370" y="3850" as="sourcePoint" />
            <mxPoint x="1000" y="3880" as="targetPoint" />
          </mxGeometry>
        </mxCell>
        <mxCell id="_6AYf45geY-DSHWMHWZf-72" value="" style="endArrow=classic;html=1;rounded=0;fontSize=13;" edge="1" parent="1">
          <mxGeometry width="50" height="50" relative="1" as="geometry">
            <mxPoint x="690" y="3850" as="sourcePoint" />
            <mxPoint x="1000" y="3860" as="targetPoint" />
          </mxGeometry>
        </mxCell>
        <mxCell id="_6AYf45geY-DSHWMHWZf-73" value="" style="endArrow=classic;html=1;rounded=0;fontSize=13;" edge="1" parent="1">
          <mxGeometry width="50" height="50" relative="1" as="geometry">
            <mxPoint x="840" y="3880" as="sourcePoint" />
            <mxPoint x="1000" y="3930" as="targetPoint" />
          </mxGeometry>
        </mxCell>
        <mxCell id="_6AYf45geY-DSHWMHWZf-74" value="&lt;span style=&quot;font-size: 13px;&quot;&gt;ACK&lt;br&gt;&lt;/span&gt;" style="text;html=1;align=center;verticalAlign=middle;resizable=0;points=[];autosize=1;strokeColor=none;fillColor=none;fontSize=16;labelBackgroundColor=default;" vertex="1" parent="1">
          <mxGeometry x="563.66" y="3840" width="50" height="30" as="geometry" />
        </mxCell>
        <mxCell id="_6AYf45geY-DSHWMHWZf-75" value="&lt;span style=&quot;font-size: 13px;&quot;&gt;ACK&lt;br&gt;&lt;/span&gt;" style="text;html=1;align=center;verticalAlign=middle;resizable=0;points=[];autosize=1;strokeColor=none;fillColor=none;fontSize=16;labelBackgroundColor=default;" vertex="1" parent="1">
          <mxGeometry x="769.42" y="3836" width="50" height="30" as="geometry" />
        </mxCell>
        <mxCell id="_6AYf45geY-DSHWMHWZf-76" value="&lt;span style=&quot;font-size: 13px;&quot;&gt;ACK(IS_SharerOrOwner)&lt;br&gt;&lt;/span&gt;" style="text;html=1;align=center;verticalAlign=middle;resizable=0;points=[];autosize=1;strokeColor=none;fillColor=none;fontSize=16;labelBackgroundColor=default;" vertex="1" parent="1">
          <mxGeometry x="838.42" y="3890" width="170" height="30" as="geometry" />
        </mxCell>
        <mxCell id="_6AYf45geY-DSHWMHWZf-77" value="" style="endArrow=classic;html=1;rounded=0;fontSize=13;" edge="1" parent="1">
          <mxGeometry width="50" height="50" relative="1" as="geometry">
            <mxPoint x="1000" y="3930" as="sourcePoint" />
            <mxPoint x="840" y="3950" as="targetPoint" />
          </mxGeometry>
        </mxCell>
        <mxCell id="_6AYf45geY-DSHWMHWZf-78" value="&lt;span style=&quot;font-size: 13px;&quot;&gt;TRANSFER_F&lt;br&gt;&lt;/span&gt;" style="text;html=1;align=center;verticalAlign=middle;resizable=0;points=[];autosize=1;strokeColor=none;fillColor=none;fontSize=16;labelBackgroundColor=default;" vertex="1" parent="1">
          <mxGeometry x="872.92" y="3926" width="110" height="30" as="geometry" />
        </mxCell>
        <mxCell id="_6AYf45geY-DSHWMHWZf-79" value="" style="endArrow=classic;html=1;rounded=0;fontSize=13;" edge="1" parent="1">
          <mxGeometry width="50" height="50" relative="1" as="geometry">
            <mxPoint x="840" y="3950" as="sourcePoint" />
            <mxPoint x="1000" y="3980" as="targetPoint" />
          </mxGeometry>
        </mxCell>
        <mxCell id="_6AYf45geY-DSHWMHWZf-80" value="&lt;span style=&quot;font-size: 13px;&quot;&gt;SET_ACK&lt;br&gt;&lt;/span&gt;" style="text;html=1;align=center;verticalAlign=middle;resizable=0;points=[];autosize=1;strokeColor=none;fillColor=none;fontSize=16;labelBackgroundColor=default;" vertex="1" parent="1">
          <mxGeometry x="889.42" y="3946" width="80" height="30" as="geometry" />
        </mxCell>
        <mxCell id="_6AYf45geY-DSHWMHWZf-81" value="" style="endArrow=classic;html=1;rounded=0;fontSize=13;" edge="1" parent="1">
          <mxGeometry width="50" height="50" relative="1" as="geometry">
            <mxPoint x="1000" y="3980" as="sourcePoint" />
            <mxPoint x="530" y="4000" as="targetPoint" />
          </mxGeometry>
        </mxCell>
        <mxCell id="_6AYf45geY-DSHWMHWZf-82" value="&lt;span style=&quot;font-size: 13px;&quot;&gt;PUT_ACK&lt;br&gt;&lt;/span&gt;" style="text;html=1;align=center;verticalAlign=middle;resizable=0;points=[];autosize=1;strokeColor=none;fillColor=none;fontSize=16;labelBackgroundColor=default;" vertex="1" parent="1">
          <mxGeometry x="576.92" y="3980" width="80" height="30" as="geometry" />
        </mxCell>
        <mxCell id="_6AYf45geY-DSHWMHWZf-83" value="" style="strokeWidth=2;html=1;shape=mxgraph.flowchart.annotation_2;align=left;labelPosition=right;pointerEvents=1;strokeColor=default;fontSize=13;fillColor=#E6E6E6;flipH=1;" vertex="1" parent="1">
          <mxGeometry x="1008.42" y="3879" width="25" height="51" as="geometry" />
        </mxCell>
        <mxCell id="_6AYf45geY-DSHWMHWZf-84" value="&lt;span style=&quot;font-size: 13px;&quot;&gt;S =&amp;gt; F&lt;br&gt;&lt;/span&gt;" style="text;html=1;align=center;verticalAlign=middle;resizable=0;points=[];autosize=1;strokeColor=none;fillColor=none;fontSize=16;labelBackgroundColor=default;" vertex="1" parent="1">
          <mxGeometry x="778.4200000000001" y="3936" width="60" height="30" as="geometry" />
        </mxCell>
        <mxCell id="_6AYf45geY-DSHWMHWZf-85" value="&lt;span style=&quot;font-size: 13px;&quot;&gt;F =&amp;gt; I&lt;br&gt;&lt;/span&gt;" style="text;html=1;align=center;verticalAlign=middle;resizable=0;points=[];autosize=1;strokeColor=none;fillColor=none;fontSize=16;labelBackgroundColor=default;" vertex="1" parent="1">
          <mxGeometry x="469.17" y="3980" width="60" height="30" as="geometry" />
        </mxCell>
        <mxCell id="_6AYf45geY-DSHWMHWZf-86" value="" style="endArrow=classic;html=1;rounded=0;fontSize=13;" edge="1" parent="1">
          <mxGeometry width="50" height="50" relative="1" as="geometry">
            <mxPoint x="1000" y="3990" as="sourcePoint" />
            <mxPoint x="690" y="4030" as="targetPoint" />
          </mxGeometry>
        </mxCell>
        <mxCell id="_6AYf45geY-DSHWMHWZf-87" value="" style="endArrow=classic;html=1;rounded=0;fontSize=13;" edge="1" parent="1">
          <mxGeometry width="50" height="50" relative="1" as="geometry">
            <mxPoint x="1000" y="3990" as="sourcePoint" />
            <mxPoint x="840" y="4030" as="targetPoint" />
          </mxGeometry>
        </mxCell>
        <mxCell id="_6AYf45geY-DSHWMHWZf-88" value="&lt;span style=&quot;font-size: 13px;&quot;&gt;FWD_SharedData&lt;br&gt;&lt;/span&gt;" style="text;html=1;align=center;verticalAlign=middle;resizable=0;points=[];autosize=1;strokeColor=none;fillColor=none;fontSize=16;labelBackgroundColor=default;" vertex="1" parent="1">
          <mxGeometry x="707.92" y="4010" width="130" height="30" as="geometry" />
        </mxCell>
        <mxCell id="_6AYf45geY-DSHWMHWZf-89" value="&lt;span style=&quot;font-size: 13px;&quot;&gt;FWD_SharedData&lt;br&gt;&lt;/span&gt;" style="text;html=1;align=center;verticalAlign=middle;resizable=0;points=[];autosize=1;strokeColor=none;fillColor=none;fontSize=16;labelBackgroundColor=default;" vertex="1" parent="1">
          <mxGeometry x="852.92" y="4010" width="130" height="30" as="geometry" />
        </mxCell>
        <mxCell id="_6AYf45geY-DSHWMHWZf-90" value="" style="endArrow=classic;html=1;rounded=0;fontSize=13;startArrow=none;" edge="1" parent="1" source="_6AYf45geY-DSHWMHWZf-94">
          <mxGeometry width="50" height="50" relative="1" as="geometry">
            <mxPoint x="530" y="4030" as="sourcePoint" />
            <mxPoint x="370" y="4060" as="targetPoint" />
          </mxGeometry>
        </mxCell>
        <mxCell id="_6AYf45geY-DSHWMHWZf-91" value="" style="endArrow=classic;html=1;rounded=0;fontSize=13;" edge="1" parent="1">
          <mxGeometry width="50" height="50" relative="1" as="geometry">
            <mxPoint x="690" y="4030" as="sourcePoint" />
            <mxPoint x="370" y="4070" as="targetPoint" />
          </mxGeometry>
        </mxCell>
        <mxCell id="_6AYf45geY-DSHWMHWZf-92" value="" style="endArrow=classic;html=1;rounded=0;fontSize=13;" edge="1" parent="1">
          <mxGeometry width="50" height="50" relative="1" as="geometry">
            <mxPoint x="840" y="4050" as="sourcePoint" />
            <mxPoint x="370" y="4090" as="targetPoint" />
          </mxGeometry>
        </mxCell>
        <mxCell id="_6AYf45geY-DSHWMHWZf-93" value="" style="endArrow=none;html=1;rounded=0;fontSize=13;" edge="1" parent="1" target="_6AYf45geY-DSHWMHWZf-94">
          <mxGeometry width="50" height="50" relative="1" as="geometry">
            <mxPoint x="530" y="4030" as="sourcePoint" />
            <mxPoint x="370" y="4060" as="targetPoint" />
          </mxGeometry>
        </mxCell>
        <mxCell id="_6AYf45geY-DSHWMHWZf-94" value="&lt;span style=&quot;font-size: 13px;&quot;&gt;ACK&lt;br&gt;&lt;/span&gt;" style="text;html=1;align=center;verticalAlign=middle;resizable=0;points=[];autosize=1;strokeColor=none;fillColor=none;fontSize=16;labelBackgroundColor=default;" vertex="1" parent="1">
          <mxGeometry x="426.09000000000003" y="4030" width="50" height="30" as="geometry" />
        </mxCell>
        <mxCell id="_6AYf45geY-DSHWMHWZf-95" value="&lt;span style=&quot;font-size: 13px;&quot;&gt;ACK&lt;br&gt;&lt;/span&gt;" style="text;html=1;align=center;verticalAlign=middle;resizable=0;points=[];autosize=1;strokeColor=none;fillColor=none;fontSize=16;labelBackgroundColor=default;" vertex="1" parent="1">
          <mxGeometry x="390" y="4050" width="50" height="30" as="geometry" />
        </mxCell>
        <mxCell id="_6AYf45geY-DSHWMHWZf-96" value="&lt;span style=&quot;font-size: 13px;&quot;&gt;ACK(+Data)&lt;br&gt;&lt;/span&gt;" style="text;html=1;align=center;verticalAlign=middle;resizable=0;points=[];autosize=1;strokeColor=none;fillColor=none;fontSize=16;labelBackgroundColor=default;" vertex="1" parent="1">
          <mxGeometry x="558.92" y="4050" width="90" height="30" as="geometry" />
        </mxCell>
        <mxCell id="_6AYf45geY-DSHWMHWZf-97" value="&lt;span style=&quot;font-size: 13px;&quot;&gt;GET_ACK&lt;br&gt;&lt;/span&gt;" style="text;html=1;align=center;verticalAlign=middle;resizable=0;points=[];autosize=1;strokeColor=none;fillColor=none;fontSize=16;labelBackgroundColor=default;" vertex="1" parent="1">
          <mxGeometry x="701.92" y="4090" width="80" height="30" as="geometry" />
        </mxCell>
        <mxCell id="_6AYf45geY-DSHWMHWZf-98" value="集群A&lt;br&gt;(CA 1)" style="whiteSpace=wrap;html=1;aspect=fixed;sketch=0;fillStyle=auto;strokeWidth=1;fontSize=15;" vertex="1" parent="1">
          <mxGeometry x="1160.75" y="5019" width="110" height="110" as="geometry" />
        </mxCell>
        <mxCell id="_6AYf45geY-DSHWMHWZf-99" value="集群B&lt;br&gt;(CA 2)" style="whiteSpace=wrap;html=1;aspect=fixed;sketch=0;fillStyle=auto;strokeWidth=1;fontSize=15;" vertex="1" parent="1">
          <mxGeometry x="1443.75" y="5019" width="110" height="110" as="geometry" />
        </mxCell>
        <mxCell id="_6AYf45geY-DSHWMHWZf-100" value="集群C&lt;br&gt;(CA 3)" style="whiteSpace=wrap;html=1;aspect=fixed;sketch=0;fillStyle=auto;strokeWidth=1;fontSize=15;" vertex="1" parent="1">
          <mxGeometry x="1160.75" y="5281" width="110" height="110" as="geometry" />
        </mxCell>
        <mxCell id="_6AYf45geY-DSHWMHWZf-101" value="集群D&lt;br&gt;(CA 4)" style="whiteSpace=wrap;html=1;aspect=fixed;sketch=0;fillStyle=auto;strokeWidth=1;fontSize=15;" vertex="1" parent="1">
          <mxGeometry x="1442.75" y="5281" width="110" height="110" as="geometry" />
        </mxCell>
        <mxCell id="_6AYf45geY-DSHWMHWZf-102" value="片上互&amp;nbsp; &amp;nbsp;连结构" style="ellipse;shape=cloud;whiteSpace=wrap;html=1;sketch=0;fillStyle=auto;strokeWidth=1;fontSize=15;" vertex="1" parent="1">
          <mxGeometry x="1250.75" y="5153" width="190" height="105" as="geometry" />
        </mxCell>
        <mxCell id="_6AYf45geY-DSHWMHWZf-103" value="" style="endArrow=classic;startArrow=classic;html=1;rounded=0;strokeColor=default;strokeWidth=1;fontSize=13;endSize=6;entryX=1;entryY=1;entryDx=0;entryDy=0;exitX=0.25;exitY=0.25;exitDx=0;exitDy=0;exitPerimeter=0;" edge="1" parent="1" source="_6AYf45geY-DSHWMHWZf-102" target="_6AYf45geY-DSHWMHWZf-98">
          <mxGeometry width="50" height="50" relative="1" as="geometry">
            <mxPoint x="1117.75" y="5170" as="sourcePoint" />
            <mxPoint x="1229.4499999999998" y="5142.5" as="targetPoint" />
          </mxGeometry>
        </mxCell>
        <mxCell id="_6AYf45geY-DSHWMHWZf-104" value="" style="endArrow=classic;startArrow=classic;html=1;rounded=0;strokeColor=default;strokeWidth=1;fontSize=13;endSize=6;entryX=0;entryY=1;entryDx=0;entryDy=0;exitX=0.88;exitY=0.25;exitDx=0;exitDy=0;exitPerimeter=0;" edge="1" parent="1" source="_6AYf45geY-DSHWMHWZf-102" target="_6AYf45geY-DSHWMHWZf-99">
          <mxGeometry width="50" height="50" relative="1" as="geometry">
            <mxPoint x="1653.75" y="5138" as="sourcePoint" />
            <mxPoint x="1765.4499999999998" y="5110.5" as="targetPoint" />
          </mxGeometry>
        </mxCell>
        <mxCell id="_6AYf45geY-DSHWMHWZf-105" value="" style="endArrow=classic;startArrow=classic;html=1;rounded=0;strokeColor=default;strokeWidth=1;fontSize=13;endSize=6;entryX=1;entryY=0;entryDx=0;entryDy=0;exitX=0.31;exitY=0.8;exitDx=0;exitDy=0;exitPerimeter=0;" edge="1" parent="1" source="_6AYf45geY-DSHWMHWZf-102" target="_6AYf45geY-DSHWMHWZf-100">
          <mxGeometry width="50" height="50" relative="1" as="geometry">
            <mxPoint x="1162.75" y="5506" as="sourcePoint" />
            <mxPoint x="1274.4499999999998" y="5478.5" as="targetPoint" />
          </mxGeometry>
        </mxCell>
        <mxCell id="_6AYf45geY-DSHWMHWZf-106" value="" style="endArrow=classic;startArrow=classic;html=1;rounded=0;strokeColor=default;strokeWidth=1;fontSize=13;endSize=6;entryX=0.855;entryY=0.779;entryDx=0;entryDy=0;exitX=0;exitY=0;exitDx=0;exitDy=0;entryPerimeter=0;" edge="1" parent="1" source="_6AYf45geY-DSHWMHWZf-101" target="_6AYf45geY-DSHWMHWZf-102">
          <mxGeometry width="50" height="50" relative="1" as="geometry">
            <mxPoint x="1358.75" y="5252" as="sourcePoint" />
            <mxPoint x="1830.4499999999998" y="5150.5" as="targetPoint" />
          </mxGeometry>
        </mxCell>
        <mxCell id="_6AYf45geY-DSHWMHWZf-107" style="edgeStyle=orthogonalEdgeStyle;curved=1;rounded=0;orthogonalLoop=1;jettySize=auto;html=1;exitX=0.25;exitY=0;exitDx=0;exitDy=0;entryX=1;entryY=0;entryDx=0;entryDy=0;dashed=1;strokeWidth=1;dashPattern=8 8;" edge="1" parent="1" source="_6AYf45geY-DSHWMHWZf-108" target="_6AYf45geY-DSHWMHWZf-122">
          <mxGeometry relative="1" as="geometry">
            <Array as="points">
              <mxPoint x="1350" y="5458" />
              <mxPoint x="1350" y="5050" />
              <mxPoint x="1073" y="5050" />
            </Array>
          </mxGeometry>
        </mxCell>
        <mxCell id="_6AYf45geY-DSHWMHWZf-108" value="&lt;font style=&quot;font-size: 15px;&quot;&gt;HA&lt;/font&gt;" style="rounded=0;whiteSpace=wrap;html=1;sketch=0;fillStyle=auto;strokeWidth=1;fontSize=13;" vertex="1" parent="1">
          <mxGeometry x="1265.25" y="5458" width="182" height="83" as="geometry" />
        </mxCell>
        <mxCell id="_6AYf45geY-DSHWMHWZf-109" value="&lt;font style=&quot;font-size: 15px;&quot;&gt;main memory&lt;/font&gt;" style="rounded=0;whiteSpace=wrap;html=1;sketch=0;fillStyle=auto;strokeWidth=1;fontSize=13;" vertex="1" parent="1">
          <mxGeometry x="809" y="5439" width="274.5" height="121" as="geometry" />
        </mxCell>
        <mxCell id="_6AYf45geY-DSHWMHWZf-110" value="" style="endArrow=classic;startArrow=classic;html=1;rounded=0;strokeColor=default;strokeWidth=1;fontSize=15;endSize=6;elbow=vertical;entryX=0.55;entryY=0.95;entryDx=0;entryDy=0;entryPerimeter=0;" edge="1" parent="1" source="_6AYf45geY-DSHWMHWZf-108" target="_6AYf45geY-DSHWMHWZf-102">
          <mxGeometry width="50" height="50" relative="1" as="geometry">
            <mxPoint x="865.75" y="5669" as="sourcePoint" />
            <mxPoint x="915.75" y="5619" as="targetPoint" />
          </mxGeometry>
        </mxCell>
        <mxCell id="_6AYf45geY-DSHWMHWZf-111" value="" style="endArrow=classic;startArrow=classic;html=1;rounded=0;strokeColor=default;strokeWidth=1;fontSize=15;endSize=6;elbow=vertical;entryX=0;entryY=0.5;entryDx=0;entryDy=0;exitX=1;exitY=0.5;exitDx=0;exitDy=0;" edge="1" parent="1" source="_6AYf45geY-DSHWMHWZf-109" target="_6AYf45geY-DSHWMHWZf-108">
          <mxGeometry width="50" height="50" relative="1" as="geometry">
            <mxPoint x="954.75" y="5720" as="sourcePoint" />
            <mxPoint x="1004.75" y="5670" as="targetPoint" />
          </mxGeometry>
        </mxCell>
        <mxCell id="_6AYf45geY-DSHWMHWZf-112" value="&lt;font style=&quot;font-size: 20px;&quot;&gt;C1&lt;/font&gt;" style="ellipse;whiteSpace=wrap;html=1;aspect=fixed;sketch=0;fillStyle=auto;strokeWidth=1;fontSize=11;" vertex="1" parent="1">
          <mxGeometry x="666.75" y="5009" width="50.5" height="50.5" as="geometry" />
        </mxCell>
        <mxCell id="_6AYf45geY-DSHWMHWZf-113" value="" style="rounded=0;whiteSpace=wrap;html=1;sketch=0;fillStyle=auto;strokeWidth=1;fontSize=30;" vertex="1" parent="1">
          <mxGeometry x="632" y="5085" width="120" height="60" as="geometry" />
        </mxCell>
        <mxCell id="_6AYf45geY-DSHWMHWZf-114" value="I" style="rounded=0;whiteSpace=wrap;html=1;sketch=0;fillStyle=auto;strokeWidth=1;fontSize=15;" vertex="1" parent="1">
          <mxGeometry x="632" y="5102.5" width="18" height="22" as="geometry" />
        </mxCell>
        <mxCell id="_6AYf45geY-DSHWMHWZf-115" value="&lt;font style=&quot;font-size: 13px;&quot;&gt;B&lt;/font&gt;" style="text;html=1;align=center;verticalAlign=middle;resizable=0;points=[];autosize=1;strokeColor=none;fillColor=none;fontSize=15;" vertex="1" parent="1">
          <mxGeometry x="606" y="5098.5" width="30" height="30" as="geometry" />
        </mxCell>
        <mxCell id="_6AYf45geY-DSHWMHWZf-116" value="&lt;font style=&quot;font-size: 20px;&quot;&gt;C2&lt;/font&gt;" style="ellipse;whiteSpace=wrap;html=1;aspect=fixed;sketch=0;fillStyle=auto;strokeWidth=1;fontSize=11;" vertex="1" parent="1">
          <mxGeometry x="826.75" y="5009" width="50.5" height="50.5" as="geometry" />
        </mxCell>
        <mxCell id="_6AYf45geY-DSHWMHWZf-117" value="" style="rounded=0;whiteSpace=wrap;html=1;sketch=0;fillStyle=auto;strokeWidth=1;fontSize=30;" vertex="1" parent="1">
          <mxGeometry x="792" y="5085" width="120" height="60" as="geometry" />
        </mxCell>
        <mxCell id="_6AYf45geY-DSHWMHWZf-118" value="&lt;font style=&quot;font-size: 13px;&quot;&gt;B&lt;/font&gt;" style="text;html=1;align=center;verticalAlign=middle;resizable=0;points=[];autosize=1;strokeColor=none;fillColor=none;fontSize=15;" vertex="1" parent="1">
          <mxGeometry x="766" y="5098.5" width="30" height="30" as="geometry" />
        </mxCell>
        <mxCell id="_6AYf45geY-DSHWMHWZf-119" value="&lt;font style=&quot;font-size: 20px;&quot;&gt;C3&lt;/font&gt;" style="ellipse;whiteSpace=wrap;html=1;aspect=fixed;sketch=0;fillStyle=auto;strokeWidth=1;fontSize=11;" vertex="1" parent="1">
          <mxGeometry x="987.25" y="5009" width="50.5" height="50.5" as="geometry" />
        </mxCell>
        <mxCell id="_6AYf45geY-DSHWMHWZf-120" value="" style="rounded=0;whiteSpace=wrap;html=1;sketch=0;fillStyle=auto;strokeWidth=1;fontSize=30;" vertex="1" parent="1">
          <mxGeometry x="951" y="5085" width="120" height="60" as="geometry" />
        </mxCell>
        <mxCell id="_6AYf45geY-DSHWMHWZf-121" value="&lt;font style=&quot;font-size: 13px;&quot;&gt;B&lt;/font&gt;" style="text;html=1;align=center;verticalAlign=middle;resizable=0;points=[];autosize=1;strokeColor=none;fillColor=none;fontSize=15;" vertex="1" parent="1">
          <mxGeometry x="925" y="5098.5" width="30" height="30" as="geometry" />
        </mxCell>
        <mxCell id="_6AYf45geY-DSHWMHWZf-122" value="LLC" style="rounded=0;whiteSpace=wrap;html=1;sketch=0;fillStyle=auto;strokeWidth=1;fontSize=13;" vertex="1" parent="1">
          <mxGeometry x="631" y="5269" width="442" height="109" as="geometry" />
        </mxCell>
        <mxCell id="_6AYf45geY-DSHWMHWZf-123" value="M" style="rounded=0;whiteSpace=wrap;html=1;sketch=0;fillStyle=auto;strokeWidth=1;fontSize=15;" vertex="1" parent="1">
          <mxGeometry x="631" y="5287" width="29" height="23" as="geometry" />
        </mxCell>
        <mxCell id="_6AYf45geY-DSHWMHWZf-124" value="&lt;font style=&quot;font-size: 13px;&quot;&gt;B&lt;/font&gt;" style="text;html=1;align=center;verticalAlign=middle;resizable=0;points=[];autosize=1;strokeColor=none;fillColor=none;fontSize=15;" vertex="1" parent="1">
          <mxGeometry x="602" y="5283.5" width="30" height="30" as="geometry" />
        </mxCell>
        <mxCell id="_6AYf45geY-DSHWMHWZf-125" value="&lt;font style=&quot;font-size: 13px;&quot;&gt;L1 Cache&lt;br&gt;&lt;/font&gt;" style="text;html=1;align=center;verticalAlign=middle;resizable=0;points=[];autosize=1;strokeColor=none;fillColor=none;fontSize=15;" vertex="1" parent="1">
          <mxGeometry x="678" y="5098.5" width="80" height="30" as="geometry" />
        </mxCell>
        <mxCell id="_6AYf45geY-DSHWMHWZf-126" value="&lt;font style=&quot;font-size: 13px;&quot;&gt;L1 Cache&lt;br&gt;&lt;/font&gt;" style="text;html=1;align=center;verticalAlign=middle;resizable=0;points=[];autosize=1;strokeColor=none;fillColor=none;fontSize=15;" vertex="1" parent="1">
          <mxGeometry x="839" y="5098.5" width="80" height="30" as="geometry" />
        </mxCell>
        <mxCell id="_6AYf45geY-DSHWMHWZf-127" value="&lt;font style=&quot;font-size: 13px;&quot;&gt;L1 Cache&lt;br&gt;&lt;/font&gt;" style="text;html=1;align=center;verticalAlign=middle;resizable=0;points=[];autosize=1;strokeColor=none;fillColor=none;fontSize=15;" vertex="1" parent="1">
          <mxGeometry x="999" y="5098.5" width="80" height="30" as="geometry" />
        </mxCell>
        <mxCell id="_6AYf45geY-DSHWMHWZf-128" value="" style="endArrow=classic;startArrow=classic;html=1;rounded=0;strokeColor=default;strokeWidth=1;fontSize=13;endSize=6;entryX=0.5;entryY=1;entryDx=0;entryDy=0;exitX=0.5;exitY=0;exitDx=0;exitDy=0;" edge="1" parent="1" source="_6AYf45geY-DSHWMHWZf-113" target="_6AYf45geY-DSHWMHWZf-112">
          <mxGeometry width="50" height="50" relative="1" as="geometry">
            <mxPoint x="569" y="5106" as="sourcePoint" />
            <mxPoint x="619" y="5056" as="targetPoint" />
          </mxGeometry>
        </mxCell>
        <mxCell id="_6AYf45geY-DSHWMHWZf-129" value="" style="endArrow=classic;startArrow=classic;html=1;rounded=0;strokeColor=default;strokeWidth=1;fontSize=13;endSize=6;entryX=0.5;entryY=1;entryDx=0;entryDy=0;" edge="1" parent="1" source="_6AYf45geY-DSHWMHWZf-120" target="_6AYf45geY-DSHWMHWZf-119">
          <mxGeometry width="50" height="50" relative="1" as="geometry">
            <mxPoint x="939" y="5188" as="sourcePoint" />
            <mxPoint x="989" y="5138" as="targetPoint" />
          </mxGeometry>
        </mxCell>
        <mxCell id="_6AYf45geY-DSHWMHWZf-130" value="" style="endArrow=classic;startArrow=classic;html=1;rounded=0;strokeColor=default;strokeWidth=1;fontSize=13;endSize=6;entryX=0.5;entryY=1;entryDx=0;entryDy=0;exitX=0.5;exitY=0;exitDx=0;exitDy=0;" edge="1" parent="1" source="_6AYf45geY-DSHWMHWZf-117" target="_6AYf45geY-DSHWMHWZf-116">
          <mxGeometry width="50" height="50" relative="1" as="geometry">
            <mxPoint x="939" y="5188" as="sourcePoint" />
            <mxPoint x="989" y="5138" as="targetPoint" />
          </mxGeometry>
        </mxCell>
        <mxCell id="_6AYf45geY-DSHWMHWZf-131" value="片上互连结构" style="ellipse;shape=cloud;whiteSpace=wrap;html=1;sketch=0;fillStyle=auto;strokeWidth=1;fontSize=13;" vertex="1" parent="1">
          <mxGeometry x="708" y="5165" width="310" height="70" as="geometry" />
        </mxCell>
        <mxCell id="_6AYf45geY-DSHWMHWZf-132" value="" style="endArrow=classic;startArrow=classic;html=1;rounded=0;strokeColor=default;strokeWidth=1;fontSize=13;endSize=6;entryX=0.5;entryY=1;entryDx=0;entryDy=0;exitX=0.07;exitY=0.4;exitDx=0;exitDy=0;exitPerimeter=0;" edge="1" parent="1" source="_6AYf45geY-DSHWMHWZf-131" target="_6AYf45geY-DSHWMHWZf-113">
          <mxGeometry width="50" height="50" relative="1" as="geometry">
            <mxPoint x="651" y="5235" as="sourcePoint" />
            <mxPoint x="701" y="5185" as="targetPoint" />
          </mxGeometry>
        </mxCell>
        <mxCell id="_6AYf45geY-DSHWMHWZf-133" value="" style="endArrow=classic;startArrow=classic;html=1;rounded=0;strokeColor=default;strokeWidth=1;fontSize=13;endSize=6;entryX=0.5;entryY=1;entryDx=0;entryDy=0;exitX=0.88;exitY=0.25;exitDx=0;exitDy=0;exitPerimeter=0;" edge="1" parent="1" source="_6AYf45geY-DSHWMHWZf-131" target="_6AYf45geY-DSHWMHWZf-120">
          <mxGeometry width="50" height="50" relative="1" as="geometry">
            <mxPoint x="1171" y="5195" as="sourcePoint" />
            <mxPoint x="1221" y="5145" as="targetPoint" />
          </mxGeometry>
        </mxCell>
        <mxCell id="_6AYf45geY-DSHWMHWZf-134" value="" style="endArrow=classic;startArrow=classic;html=1;rounded=0;strokeColor=default;strokeWidth=1;fontSize=13;endSize=6;exitX=0.466;exitY=0.07;exitDx=0;exitDy=0;exitPerimeter=0;entryX=0.5;entryY=1;entryDx=0;entryDy=0;" edge="1" parent="1" source="_6AYf45geY-DSHWMHWZf-131" target="_6AYf45geY-DSHWMHWZf-117">
          <mxGeometry width="50" height="50" relative="1" as="geometry">
            <mxPoint x="551" y="5235" as="sourcePoint" />
            <mxPoint x="601" y="5185" as="targetPoint" />
          </mxGeometry>
        </mxCell>
        <mxCell id="_6AYf45geY-DSHWMHWZf-135" value="" style="endArrow=classic;startArrow=classic;html=1;rounded=0;strokeColor=default;strokeWidth=1;fontSize=13;endSize=6;entryX=0.468;entryY=0.935;entryDx=0;entryDy=0;entryPerimeter=0;exitX=0.5;exitY=0;exitDx=0;exitDy=0;" edge="1" parent="1" source="_6AYf45geY-DSHWMHWZf-122" target="_6AYf45geY-DSHWMHWZf-131">
          <mxGeometry width="50" height="50" relative="1" as="geometry">
            <mxPoint x="862" y="5255" as="sourcePoint" />
            <mxPoint x="671" y="5185" as="targetPoint" />
          </mxGeometry>
        </mxCell>
        <mxCell id="_6AYf45geY-DSHWMHWZf-136" value="data" style="rounded=0;whiteSpace=wrap;html=1;sketch=0;fillStyle=auto;strokeWidth=1;fontSize=15;" vertex="1" parent="1">
          <mxGeometry x="650" y="5102.5" width="36" height="22" as="geometry" />
        </mxCell>
        <mxCell id="_6AYf45geY-DSHWMHWZf-137" value="M" style="rounded=0;whiteSpace=wrap;html=1;sketch=0;fillStyle=auto;strokeWidth=1;fontSize=15;" vertex="1" parent="1">
          <mxGeometry x="792" y="5102.5" width="18" height="22" as="geometry" />
        </mxCell>
        <mxCell id="_6AYf45geY-DSHWMHWZf-138" value="data" style="rounded=0;whiteSpace=wrap;html=1;sketch=0;fillStyle=auto;strokeWidth=1;fontSize=15;" vertex="1" parent="1">
          <mxGeometry x="810" y="5102.5" width="36" height="22" as="geometry" />
        </mxCell>
        <mxCell id="_6AYf45geY-DSHWMHWZf-139" value="I" style="rounded=0;whiteSpace=wrap;html=1;sketch=0;fillStyle=auto;strokeWidth=1;fontSize=15;" vertex="1" parent="1">
          <mxGeometry x="951" y="5102.5" width="18" height="22" as="geometry" />
        </mxCell>
        <mxCell id="_6AYf45geY-DSHWMHWZf-140" value="data" style="rounded=0;whiteSpace=wrap;html=1;sketch=0;fillStyle=auto;strokeWidth=1;fontSize=15;" vertex="1" parent="1">
          <mxGeometry x="969" y="5102.5" width="36" height="22" as="geometry" />
        </mxCell>
        <mxCell id="_6AYf45geY-DSHWMHWZf-141" style="edgeStyle=orthogonalEdgeStyle;curved=1;rounded=0;orthogonalLoop=1;jettySize=auto;html=1;exitX=0.25;exitY=0;exitDx=0;exitDy=0;entryX=0;entryY=1;entryDx=0;entryDy=0;dashed=1;strokeColor=default;strokeWidth=2;fontSize=13;endArrow=classic;endFill=1;endSize=6;dashPattern=1 1;" edge="1" parent="1" source="_6AYf45geY-DSHWMHWZf-122" target="_6AYf45geY-DSHWMHWZf-117">
          <mxGeometry relative="1" as="geometry">
            <Array as="points">
              <mxPoint x="742" y="5243" />
              <mxPoint x="772" y="5243" />
              <mxPoint x="772" y="5145" />
            </Array>
          </mxGeometry>
        </mxCell>
        <mxCell id="_6AYf45geY-DSHWMHWZf-142" style="edgeStyle=none;rounded=0;orthogonalLoop=1;jettySize=auto;html=1;exitX=1;exitY=0.5;exitDx=0;exitDy=0;entryX=0;entryY=0.5;entryDx=0;entryDy=0;strokeColor=default;strokeWidth=1;fontSize=14;endArrow=classic;endFill=1;endSize=2;" edge="1" parent="1" source="_6AYf45geY-DSHWMHWZf-143" target="_6AYf45geY-DSHWMHWZf-144">
          <mxGeometry relative="1" as="geometry" />
        </mxCell>
        <mxCell id="_6AYf45geY-DSHWMHWZf-143" value="&lt;font style=&quot;font-size: 12px;&quot;&gt;I&lt;/font&gt;" style="rounded=0;whiteSpace=wrap;html=1;sketch=0;fillStyle=auto;strokeWidth=1;fontSize=14;fillColor=none;strokeColor=none;" vertex="1" parent="1">
          <mxGeometry x="627" y="5124.5" width="28" height="22" as="geometry" />
        </mxCell>
        <mxCell id="_6AYf45geY-DSHWMHWZf-144" value="&lt;font style=&quot;font-size: 12px;&quot;&gt;M&lt;/font&gt;" style="rounded=0;whiteSpace=wrap;html=1;sketch=0;fillStyle=auto;strokeWidth=1;fontSize=14;strokeColor=none;fillColor=none;" vertex="1" parent="1">
          <mxGeometry x="667" y="5124.5" width="28" height="22" as="geometry" />
        </mxCell>
        <mxCell id="_6AYf45geY-DSHWMHWZf-145" style="edgeStyle=orthogonalEdgeStyle;rounded=0;orthogonalLoop=1;jettySize=auto;html=1;exitX=1;exitY=1;exitDx=0;exitDy=0;entryX=0.14;entryY=-0.011;entryDx=0;entryDy=0;entryPerimeter=0;curved=1;dashed=1;strokeWidth=2;" edge="1" parent="1" source="_6AYf45geY-DSHWMHWZf-143" target="_6AYf45geY-DSHWMHWZf-122">
          <mxGeometry relative="1" as="geometry">
            <mxPoint x="722" y="5237" as="targetPoint" />
            <Array as="points">
              <mxPoint x="655" y="5165" />
              <mxPoint x="765" y="5165" />
              <mxPoint x="765" y="5224" />
              <mxPoint x="693" y="5224" />
            </Array>
          </mxGeometry>
        </mxCell>
        <mxCell id="_6AYf45geY-DSHWMHWZf-146" value="&lt;span style=&quot;font-size: 13px;&quot;&gt;GET_ModifiedData&lt;br&gt;&lt;/span&gt;" style="text;html=1;align=center;verticalAlign=middle;resizable=0;points=[];autosize=1;strokeColor=none;fillColor=none;fontSize=16;labelBackgroundColor=default;" vertex="1" parent="1">
          <mxGeometry x="558.9200000000001" y="5158" width="129" height="31" as="geometry" />
        </mxCell>
        <mxCell id="_6AYf45geY-DSHWMHWZf-147" value="&lt;span style=&quot;font-size: 13px;&quot;&gt;FWD_ModifiedData&lt;br&gt;&lt;/span&gt;" style="text;html=1;align=center;verticalAlign=middle;resizable=0;points=[];autosize=1;strokeColor=none;fillColor=none;fontSize=16;labelBackgroundColor=default;" vertex="1" parent="1">
          <mxGeometry x="721" y="5227" width="131" height="31" as="geometry" />
        </mxCell>
        <mxCell id="_6AYf45geY-DSHWMHWZf-148" style="edgeStyle=orthogonalEdgeStyle;curved=1;rounded=0;orthogonalLoop=1;jettySize=auto;html=1;exitX=0.75;exitY=0;exitDx=0;exitDy=0;entryX=0;entryY=1;entryDx=0;entryDy=0;dashed=1;dashPattern=1 1;strokeWidth=2;" edge="1" parent="1" source="_6AYf45geY-DSHWMHWZf-122" target="_6AYf45geY-DSHWMHWZf-120">
          <mxGeometry relative="1" as="geometry">
            <Array as="points">
              <mxPoint x="921" y="5269" />
              <mxPoint x="921" y="5145" />
            </Array>
          </mxGeometry>
        </mxCell>
        <mxCell id="_6AYf45geY-DSHWMHWZf-149" value="&lt;span style=&quot;font-size: 13px;&quot;&gt;FWD_ModifiedData&lt;br&gt;&lt;/span&gt;" style="text;html=1;align=center;verticalAlign=middle;resizable=0;points=[];autosize=1;strokeColor=none;fillColor=none;fontSize=16;labelBackgroundColor=default;" vertex="1" parent="1">
          <mxGeometry x="904.6600000000001" y="5231.5" width="131" height="31" as="geometry" />
        </mxCell>
        <mxCell id="_6AYf45geY-DSHWMHWZf-150" value="&lt;font style=&quot;font-size: 13px;&quot;&gt;B&lt;/font&gt;" style="text;html=1;align=center;verticalAlign=middle;resizable=0;points=[];autosize=1;strokeColor=none;fillColor=none;fontSize=15;" vertex="1" parent="1">
          <mxGeometry x="1235.25" y="5461" width="30" height="30" as="geometry" />
        </mxCell>
        <mxCell id="_6AYf45geY-DSHWMHWZf-151" value="M" style="rounded=0;whiteSpace=wrap;html=1;sketch=0;fillStyle=auto;strokeWidth=1;fontSize=15;" vertex="1" parent="1">
          <mxGeometry x="1265.25" y="5465" width="18" height="22" as="geometry" />
        </mxCell>
        <mxCell id="_6AYf45geY-DSHWMHWZf-152" value="CA 1" style="rounded=0;whiteSpace=wrap;html=1;sketch=0;fillStyle=auto;strokeWidth=1;fontSize=15;" vertex="1" parent="1">
          <mxGeometry x="1283.25" y="5465" width="35.75" height="22" as="geometry" />
        </mxCell>
        <mxCell id="_6AYf45geY-DSHWMHWZf-153" value="0001" style="rounded=0;whiteSpace=wrap;html=1;sketch=0;fillStyle=auto;strokeWidth=1;fontSize=15;" vertex="1" parent="1">
          <mxGeometry x="1319" y="5465" width="42" height="22" as="geometry" />
        </mxCell>
        <mxCell id="_6AYf45geY-DSHWMHWZf-154" style="edgeStyle=orthogonalEdgeStyle;curved=1;rounded=0;orthogonalLoop=1;jettySize=auto;html=1;exitX=0;exitY=0.25;exitDx=0;exitDy=0;entryX=0.673;entryY=0.012;entryDx=0;entryDy=0;entryPerimeter=0;dashed=1;dashPattern=1 1;strokeWidth=2;" edge="1" parent="1" source="_6AYf45geY-DSHWMHWZf-101" target="_6AYf45geY-DSHWMHWZf-108">
          <mxGeometry relative="1" as="geometry">
            <Array as="points">
              <mxPoint x="1443" y="5194" />
              <mxPoint x="1388" y="5194" />
            </Array>
          </mxGeometry>
        </mxCell>
        <mxCell id="_6AYf45geY-DSHWMHWZf-155" value="" style="endArrow=none;dashed=1;html=1;dashPattern=1 3;strokeWidth=2;rounded=0;strokeColor=default;fontSize=15;endSize=6;elbow=vertical;" edge="1" parent="1">
          <mxGeometry width="50" height="50" relative="1" as="geometry">
            <mxPoint x="559.4200000000001" y="4960" as="sourcePoint" />
            <mxPoint x="1120.42" y="4960" as="targetPoint" />
          </mxGeometry>
        </mxCell>
        <mxCell id="_6AYf45geY-DSHWMHWZf-156" value="" style="endArrow=none;dashed=1;html=1;dashPattern=1 3;strokeWidth=2;rounded=0;strokeColor=default;fontSize=15;endSize=6;elbow=vertical;" edge="1" parent="1">
          <mxGeometry width="50" height="50" relative="1" as="geometry">
            <mxPoint x="560" y="4960" as="sourcePoint" />
            <mxPoint x="560" y="5400" as="targetPoint" />
          </mxGeometry>
        </mxCell>
        <mxCell id="_6AYf45geY-DSHWMHWZf-157" value="" style="endArrow=none;dashed=1;html=1;dashPattern=1 3;strokeWidth=2;rounded=0;strokeColor=default;fontSize=15;endSize=6;elbow=vertical;" edge="1" parent="1">
          <mxGeometry width="50" height="50" relative="1" as="geometry">
            <mxPoint x="560" y="5400" as="sourcePoint" />
            <mxPoint x="1120" y="5400" as="targetPoint" />
          </mxGeometry>
        </mxCell>
        <mxCell id="_6AYf45geY-DSHWMHWZf-158" value="" style="endArrow=none;dashed=1;html=1;dashPattern=1 3;strokeWidth=2;rounded=0;strokeColor=default;fontSize=15;endSize=6;elbow=vertical;" edge="1" parent="1">
          <mxGeometry width="50" height="50" relative="1" as="geometry">
            <mxPoint x="1120" y="4960" as="sourcePoint" />
            <mxPoint x="1160" y="5020" as="targetPoint" />
          </mxGeometry>
        </mxCell>
        <mxCell id="_6AYf45geY-DSHWMHWZf-159" value="" style="endArrow=none;dashed=1;html=1;dashPattern=1 3;strokeWidth=2;rounded=0;strokeColor=default;fontSize=15;endSize=6;elbow=vertical;entryX=0;entryY=1;entryDx=0;entryDy=0;" edge="1" parent="1" target="_6AYf45geY-DSHWMHWZf-98">
          <mxGeometry width="50" height="50" relative="1" as="geometry">
            <mxPoint x="1120" y="5400" as="sourcePoint" />
            <mxPoint x="1661" y="5580" as="targetPoint" />
          </mxGeometry>
        </mxCell>
        <mxCell id="_6AYf45geY-DSHWMHWZf-160" value="data" style="rounded=0;whiteSpace=wrap;html=1;sketch=0;fillStyle=auto;strokeWidth=1;fontSize=15;" vertex="1" parent="1">
          <mxGeometry x="660.17" y="5287" width="39.83" height="23" as="geometry" />
        </mxCell>
        <mxCell id="_6AYf45geY-DSHWMHWZf-161" value="&lt;span style=&quot;font-size: 13px;&quot;&gt;FWD_ModifiedData&lt;br&gt;&lt;/span&gt;" style="text;html=1;align=center;verticalAlign=middle;resizable=0;points=[];autosize=1;strokeColor=none;fillColor=none;fontSize=16;labelBackgroundColor=default;" vertex="1" parent="1">
          <mxGeometry x="1210" y="5620" width="131" height="31" as="geometry" />
        </mxCell>
        <mxCell id="_6AYf45geY-DSHWMHWZf-162" value="" style="rounded=0;whiteSpace=wrap;html=1;sketch=0;fillStyle=auto;strokeWidth=1;fontSize=20;aspect=fixed;" vertex="1" parent="1">
          <mxGeometry x="-720" y="3000" width="966.66" height="725" as="geometry" />
        </mxCell>
        <mxCell id="_6AYf45geY-DSHWMHWZf-163" value="CA 1" style="rounded=0;whiteSpace=wrap;html=1;sketch=0;fillStyle=auto;strokeWidth=1;fontSize=20;" vertex="1" parent="1">
          <mxGeometry x="-591.0899999999999" y="3110" width="107" height="56" as="geometry" />
        </mxCell>
        <mxCell id="_6AYf45geY-DSHWMHWZf-164" value="CA 2" style="rounded=0;whiteSpace=wrap;html=1;sketch=0;fillStyle=auto;strokeWidth=1;fontSize=20;" vertex="1" parent="1">
          <mxGeometry x="-433.3399999999999" y="3110" width="107" height="56" as="geometry" />
        </mxCell>
        <mxCell id="_6AYf45geY-DSHWMHWZf-165" value="CA 3" style="rounded=0;whiteSpace=wrap;html=1;sketch=0;fillStyle=auto;strokeWidth=1;fontSize=20;" vertex="1" parent="1">
          <mxGeometry x="-270.3399999999999" y="3110" width="107" height="56" as="geometry" />
        </mxCell>
        <mxCell id="_6AYf45geY-DSHWMHWZf-166" value="CA 4" style="rounded=0;whiteSpace=wrap;html=1;sketch=0;fillStyle=auto;strokeWidth=1;fontSize=20;" vertex="1" parent="1">
          <mxGeometry x="-120.83999999999992" y="3110" width="107" height="56" as="geometry" />
        </mxCell>
        <mxCell id="_6AYf45geY-DSHWMHWZf-167" value="HA" style="rounded=0;whiteSpace=wrap;html=1;sketch=0;fillStyle=auto;strokeWidth=1;fontSize=20;" vertex="1" parent="1">
          <mxGeometry x="37.66000000000008" y="3110" width="107" height="56" as="geometry" />
        </mxCell>
        <mxCell id="_6AYf45geY-DSHWMHWZf-168" value="" style="endArrow=none;html=1;rounded=0;fontSize=18;strokeWidth=3;exitX=0.5;exitY=1;exitDx=0;exitDy=0;" edge="1" parent="1" source="_6AYf45geY-DSHWMHWZf-163">
          <mxGeometry width="50" height="50" relative="1" as="geometry">
            <mxPoint x="-602.0899999999999" y="3320" as="sourcePoint" />
            <mxPoint x="-537.0899999999999" y="3590" as="targetPoint" />
          </mxGeometry>
        </mxCell>
        <mxCell id="_6AYf45geY-DSHWMHWZf-169" value="" style="endArrow=none;html=1;rounded=0;fontSize=18;strokeWidth=3;exitX=0.5;exitY=1;exitDx=0;exitDy=0;" edge="1" parent="1" source="_6AYf45geY-DSHWMHWZf-164">
          <mxGeometry width="50" height="50" relative="1" as="geometry">
            <mxPoint x="-367.5899999999999" y="3180" as="sourcePoint" />
            <mxPoint x="-379.3399999999999" y="3590" as="targetPoint" />
          </mxGeometry>
        </mxCell>
        <mxCell id="_6AYf45geY-DSHWMHWZf-170" value="" style="endArrow=none;html=1;rounded=0;fontSize=18;strokeWidth=3;exitX=0.5;exitY=1;exitDx=0;exitDy=0;" edge="1" parent="1" source="_6AYf45geY-DSHWMHWZf-165">
          <mxGeometry width="50" height="50" relative="1" as="geometry">
            <mxPoint x="-202.33999999999992" y="3480" as="sourcePoint" />
            <mxPoint x="-216.33999999999992" y="3590" as="targetPoint" />
          </mxGeometry>
        </mxCell>
        <mxCell id="_6AYf45geY-DSHWMHWZf-171" value="" style="endArrow=none;html=1;rounded=0;fontSize=18;strokeWidth=3;exitX=0.5;exitY=1;exitDx=0;exitDy=0;" edge="1" parent="1" source="_6AYf45geY-DSHWMHWZf-166">
          <mxGeometry width="50" height="50" relative="1" as="geometry">
            <mxPoint x="-103.83999999999992" y="3340" as="sourcePoint" />
            <mxPoint x="-67.83999999999992" y="3590" as="targetPoint" />
          </mxGeometry>
        </mxCell>
        <mxCell id="_6AYf45geY-DSHWMHWZf-172" value="" style="endArrow=none;html=1;rounded=0;fontSize=18;strokeWidth=3;exitX=0.5;exitY=1;exitDx=0;exitDy=0;" edge="1" parent="1" source="_6AYf45geY-DSHWMHWZf-167">
          <mxGeometry width="50" height="50" relative="1" as="geometry">
            <mxPoint x="14.160000000000082" y="3410" as="sourcePoint" />
            <mxPoint x="91.16000000000008" y="3590" as="targetPoint" />
          </mxGeometry>
        </mxCell>
        <mxCell id="_6AYf45geY-DSHWMHWZf-173" value="" style="endArrow=classic;html=1;rounded=0;fontSize=16;" edge="1" parent="1">
          <mxGeometry width="50" height="50" relative="1" as="geometry">
            <mxPoint x="-648.3399999999999" y="3190" as="sourcePoint" />
            <mxPoint x="-648.3399999999999" y="3330" as="targetPoint" />
          </mxGeometry>
        </mxCell>
        <mxCell id="_6AYf45geY-DSHWMHWZf-174" value="时间线" style="text;html=1;align=center;verticalAlign=middle;resizable=0;points=[];autosize=1;strokeColor=none;fillColor=none;fontSize=16;" vertex="1" parent="1">
          <mxGeometry x="-714.3399999999999" y="3250" width="70" height="30" as="geometry" />
        </mxCell>
        <mxCell id="_6AYf45geY-DSHWMHWZf-175" value="" style="endArrow=classic;html=1;rounded=0;fontSize=16;exitX=0.5;exitY=1;exitDx=0;exitDy=0;" edge="1" parent="1" source="_6AYf45geY-DSHWMHWZf-163">
          <mxGeometry width="50" height="50" relative="1" as="geometry">
            <mxPoint x="-528.3399999999999" y="3190" as="sourcePoint" />
            <mxPoint x="90.66000000000008" y="3230" as="targetPoint" />
          </mxGeometry>
        </mxCell>
        <mxCell id="_6AYf45geY-DSHWMHWZf-176" value="&lt;span style=&quot;font-size: 13px;&quot;&gt;GET_ModifiedData&lt;br&gt;&lt;/span&gt;" style="text;html=1;align=center;verticalAlign=middle;resizable=0;points=[];autosize=1;strokeColor=none;fillColor=none;fontSize=16;labelBackgroundColor=default;" vertex="1" parent="1">
          <mxGeometry x="-510.5899999999999" y="3166" width="130" height="30" as="geometry" />
        </mxCell>
        <mxCell id="_6AYf45geY-DSHWMHWZf-177" value="" style="endArrow=classic;html=1;rounded=0;fontSize=13;exitX=0.5;exitY=1;exitDx=0;exitDy=0;" edge="1" parent="1" source="_6AYf45geY-DSHWMHWZf-164">
          <mxGeometry width="50" height="50" relative="1" as="geometry">
            <mxPoint x="-208.33999999999992" y="3320" as="sourcePoint" />
            <mxPoint x="90.66000000000008" y="3260" as="targetPoint" />
          </mxGeometry>
        </mxCell>
        <mxCell id="_6AYf45geY-DSHWMHWZf-178" value="&lt;span style=&quot;font-size: 13px;&quot;&gt;PUT_ModifiedData&lt;br&gt;&lt;/span&gt;" style="text;html=1;align=center;verticalAlign=middle;resizable=0;points=[];autosize=1;strokeColor=none;fillColor=none;fontSize=16;labelBackgroundColor=default;" vertex="1" parent="1">
          <mxGeometry x="-42.33999999999992" y="3240" width="130" height="30" as="geometry" />
        </mxCell>
        <mxCell id="_6AYf45geY-DSHWMHWZf-179" value="I" style="text;html=1;align=center;verticalAlign=middle;resizable=0;points=[];autosize=1;strokeColor=none;fillColor=none;fontSize=13;" vertex="1" parent="1">
          <mxGeometry x="-620.0899999999999" y="3123" width="30" height="30" as="geometry" />
        </mxCell>
        <mxCell id="_6AYf45geY-DSHWMHWZf-180" value="M" style="text;html=1;align=center;verticalAlign=middle;resizable=0;points=[];autosize=1;strokeColor=none;fillColor=none;fontSize=13;" vertex="1" parent="1">
          <mxGeometry x="-463.3399999999999" y="3123" width="30" height="30" as="geometry" />
        </mxCell>
        <mxCell id="_6AYf45geY-DSHWMHWZf-181" value="I" style="text;html=1;align=center;verticalAlign=middle;resizable=0;points=[];autosize=1;strokeColor=none;fillColor=none;fontSize=13;" vertex="1" parent="1">
          <mxGeometry x="-300.3399999999999" y="3123" width="30" height="30" as="geometry" />
        </mxCell>
        <mxCell id="_6AYf45geY-DSHWMHWZf-182" value="I" style="text;html=1;align=center;verticalAlign=middle;resizable=0;points=[];autosize=1;strokeColor=none;fillColor=none;fontSize=13;" vertex="1" parent="1">
          <mxGeometry x="-149.33999999999992" y="3123" width="30" height="30" as="geometry" />
        </mxCell>
        <mxCell id="_6AYf45geY-DSHWMHWZf-183" value="M" style="text;html=1;align=center;verticalAlign=middle;resizable=0;points=[];autosize=1;strokeColor=none;fillColor=none;fontSize=13;" vertex="1" parent="1">
          <mxGeometry x="7.660000000000082" y="3123" width="30" height="30" as="geometry" />
        </mxCell>
        <mxCell id="_6AYf45geY-DSHWMHWZf-184" value="" style="endArrow=classic;html=1;rounded=0;fontSize=13;" edge="1" parent="1">
          <mxGeometry width="50" height="50" relative="1" as="geometry">
            <mxPoint x="89.66000000000008" y="3220" as="sourcePoint" />
            <mxPoint x="-379.3399999999999" y="3270" as="targetPoint" />
          </mxGeometry>
        </mxCell>
        <mxCell id="_6AYf45geY-DSHWMHWZf-185" value="&lt;span style=&quot;font-size: 13px;&quot;&gt;FWD_SharedData&lt;br&gt;&lt;/span&gt;" style="text;html=1;align=center;verticalAlign=middle;resizable=0;points=[];autosize=1;strokeColor=none;fillColor=none;fontSize=16;labelBackgroundColor=default;" vertex="1" parent="1">
          <mxGeometry x="-345.3399999999999" y="3240" width="124" height="31" as="geometry" />
        </mxCell>
        <mxCell id="_6AYf45geY-DSHWMHWZf-186" value="" style="endArrow=classic;html=1;rounded=0;fontSize=13;" edge="1" parent="1">
          <mxGeometry width="50" height="50" relative="1" as="geometry">
            <mxPoint x="-379.3399999999999" y="3280" as="sourcePoint" />
            <mxPoint x="-69.33999999999992" y="3310" as="targetPoint" />
          </mxGeometry>
        </mxCell>
        <mxCell id="_6AYf45geY-DSHWMHWZf-187" value="" style="endArrow=classic;html=1;rounded=0;fontSize=13;" edge="1" parent="1">
          <mxGeometry width="50" height="50" relative="1" as="geometry">
            <mxPoint x="-69.33999999999992" y="3320" as="sourcePoint" />
            <mxPoint x="91.66000000000008" y="3340" as="targetPoint" />
          </mxGeometry>
        </mxCell>
        <mxCell id="_6AYf45geY-DSHWMHWZf-188" value="&lt;span style=&quot;font-size: 13px;&quot;&gt;GET_ACK&lt;br&gt;&lt;/span&gt;" style="text;html=1;align=center;verticalAlign=middle;resizable=0;points=[];autosize=1;strokeColor=none;fillColor=none;fontSize=16;labelBackgroundColor=default;" vertex="1" parent="1">
          <mxGeometry x="-35.33999999999992" y="3320" width="80" height="30" as="geometry" />
        </mxCell>
        <mxCell id="_6AYf45geY-DSHWMHWZf-189" value="" style="endArrow=classic;html=1;rounded=0;fontSize=13;exitX=0.5;exitY=1;exitDx=0;exitDy=0;" edge="1" parent="1" source="_6AYf45geY-DSHWMHWZf-166">
          <mxGeometry width="50" height="50" relative="1" as="geometry">
            <mxPoint x="180.66000000000008" y="3190" as="sourcePoint" />
            <mxPoint x="90.66000000000008" y="3210" as="targetPoint" />
          </mxGeometry>
        </mxCell>
        <mxCell id="_6AYf45geY-DSHWMHWZf-190" value="&lt;span style=&quot;font-size: 13px;&quot;&gt;GET_SharedData&lt;br&gt;&lt;/span&gt;" style="text;html=1;align=center;verticalAlign=middle;resizable=0;points=[];autosize=1;strokeColor=none;fillColor=none;fontSize=16;labelBackgroundColor=default;" vertex="1" parent="1">
          <mxGeometry x="-41.33999999999992" y="3166" width="130" height="30" as="geometry" />
        </mxCell>
        <mxCell id="_6AYf45geY-DSHWMHWZf-191" value="&lt;span style=&quot;font-size: 13px;&quot;&gt;Data&lt;br&gt;&lt;/span&gt;" style="text;html=1;align=center;verticalAlign=middle;resizable=0;points=[];autosize=1;strokeColor=none;fillColor=none;fontSize=16;labelBackgroundColor=default;" vertex="1" parent="1">
          <mxGeometry x="-199.33999999999992" y="3280" width="50" height="30" as="geometry" />
        </mxCell>
        <mxCell id="_6AYf45geY-DSHWMHWZf-192" value="" style="endArrow=classic;html=1;rounded=0;fontSize=13;" edge="1" parent="1">
          <mxGeometry width="50" height="50" relative="1" as="geometry">
            <mxPoint x="-379.3399999999999" y="3280" as="sourcePoint" />
            <mxPoint x="90.66000000000008" y="3290" as="targetPoint" />
          </mxGeometry>
        </mxCell>
        <mxCell id="_6AYf45geY-DSHWMHWZf-193" value="&lt;span style=&quot;font-size: 13px;&quot;&gt;Data&lt;br&gt;&lt;/span&gt;" style="text;html=1;align=center;verticalAlign=middle;resizable=0;points=[];autosize=1;strokeColor=none;fillColor=none;fontSize=16;labelBackgroundColor=default;" vertex="1" parent="1">
          <mxGeometry x="-48.33999999999992" y="3270" width="50" height="30" as="geometry" />
        </mxCell>
        <mxCell id="_6AYf45geY-DSHWMHWZf-194" value="&lt;span style=&quot;font-size: 13px;&quot;&gt;I =&amp;gt; S&lt;br&gt;&lt;/span&gt;" style="text;html=1;align=center;verticalAlign=middle;resizable=0;points=[];autosize=1;strokeColor=none;fillColor=none;fontSize=16;labelBackgroundColor=default;" vertex="1" parent="1">
          <mxGeometry x="-127.33999999999992" y="3310" width="60" height="30" as="geometry" />
        </mxCell>
        <mxCell id="_6AYf45geY-DSHWMHWZf-195" value="" style="strokeWidth=2;html=1;shape=mxgraph.flowchart.annotation_2;align=left;labelPosition=right;pointerEvents=1;strokeColor=default;fontSize=13;fillColor=#E6E6E6;flipH=1;" vertex="1" parent="1">
          <mxGeometry x="100.16000000000008" y="3290" width="25" height="70" as="geometry" />
        </mxCell>
        <mxCell id="_6AYf45geY-DSHWMHWZf-196" value="数据写回内存，&lt;br&gt;收集确认消息，&lt;br&gt;更新目录信息" style="text;html=1;align=center;verticalAlign=middle;resizable=0;points=[];autosize=1;strokeColor=none;fillColor=none;fontSize=13;" vertex="1" parent="1">
          <mxGeometry x="125.16000000000008" y="3295" width="110" height="60" as="geometry" />
        </mxCell>
        <mxCell id="_6AYf45geY-DSHWMHWZf-197" value="&lt;span style=&quot;font-size: 13px;&quot;&gt;M =&amp;gt; S&lt;br&gt;&lt;/span&gt;" style="text;html=1;align=center;verticalAlign=middle;resizable=0;points=[];autosize=1;strokeColor=none;fillColor=none;fontSize=16;labelBackgroundColor=default;" vertex="1" parent="1">
          <mxGeometry x="81.66000000000008" y="3360" width="70" height="30" as="geometry" />
        </mxCell>
        <mxCell id="_6AYf45geY-DSHWMHWZf-198" value="" style="endArrow=classic;html=1;rounded=0;fontSize=13;" edge="1" parent="1">
          <mxGeometry width="50" height="50" relative="1" as="geometry">
            <mxPoint x="90.66000000000008" y="3360" as="sourcePoint" />
            <mxPoint x="-379.3399999999999" y="3380" as="targetPoint" />
          </mxGeometry>
        </mxCell>
        <mxCell id="_6AYf45geY-DSHWMHWZf-199" value="" style="endArrow=classic;html=1;rounded=0;fontSize=13;" edge="1" parent="1">
          <mxGeometry width="50" height="50" relative="1" as="geometry">
            <mxPoint x="90.66000000000008" y="3360" as="sourcePoint" />
            <mxPoint x="-69.33999999999992" y="3410" as="targetPoint" />
          </mxGeometry>
        </mxCell>
        <mxCell id="_6AYf45geY-DSHWMHWZf-200" value="&lt;span style=&quot;font-size: 13px;&quot;&gt;FWD_INV&lt;br&gt;&lt;/span&gt;" style="text;html=1;align=center;verticalAlign=middle;resizable=0;points=[];autosize=1;strokeColor=none;fillColor=none;fontSize=16;labelBackgroundColor=default;" vertex="1" parent="1">
          <mxGeometry x="-56.33999999999992" y="3380" width="80" height="30" as="geometry" />
        </mxCell>
        <mxCell id="_6AYf45geY-DSHWMHWZf-201" value="" style="endArrow=classic;html=1;rounded=0;fontSize=13;" edge="1" parent="1">
          <mxGeometry width="50" height="50" relative="1" as="geometry">
            <mxPoint x="-379.3399999999999" y="3390" as="sourcePoint" />
            <mxPoint x="-539.3399999999999" y="3440" as="targetPoint" />
          </mxGeometry>
        </mxCell>
        <mxCell id="_6AYf45geY-DSHWMHWZf-202" value="" style="endArrow=classic;html=1;rounded=0;fontSize=13;" edge="1" parent="1">
          <mxGeometry width="50" height="50" relative="1" as="geometry">
            <mxPoint x="90.66000000000008" y="3360" as="sourcePoint" />
            <mxPoint x="-539.3399999999999" y="3460" as="targetPoint" />
          </mxGeometry>
        </mxCell>
        <mxCell id="_6AYf45geY-DSHWMHWZf-203" value="&lt;span style=&quot;font-size: 13px;&quot;&gt;ACK&lt;br&gt;&lt;/span&gt;" style="text;html=1;align=center;verticalAlign=middle;resizable=0;points=[];autosize=1;strokeColor=none;fillColor=none;fontSize=16;labelBackgroundColor=default;" vertex="1" parent="1">
          <mxGeometry x="-345.3399999999999" y="3410" width="50" height="30" as="geometry" />
        </mxCell>
        <mxCell id="_6AYf45geY-DSHWMHWZf-204" value="&lt;span style=&quot;font-size: 13px;&quot;&gt;ACK&lt;br&gt;&lt;/span&gt;" style="text;html=1;align=center;verticalAlign=middle;resizable=0;points=[];autosize=1;strokeColor=none;fillColor=none;fontSize=16;labelBackgroundColor=default;" vertex="1" parent="1">
          <mxGeometry x="-470.5899999999999" y="3390" width="50" height="30" as="geometry" />
        </mxCell>
        <mxCell id="_6AYf45geY-DSHWMHWZf-205" value="" style="endArrow=classic;html=1;rounded=0;fontSize=13;" edge="1" parent="1">
          <mxGeometry width="50" height="50" relative="1" as="geometry">
            <mxPoint x="-69.33999999999992" y="3420" as="sourcePoint" />
            <mxPoint x="-539.3399999999999" y="3480" as="targetPoint" />
          </mxGeometry>
        </mxCell>
        <mxCell id="_6AYf45geY-DSHWMHWZf-206" value="&lt;span style=&quot;font-size: 13px;&quot;&gt;ACK(+Data)&lt;br&gt;&lt;/span&gt;" style="text;html=1;align=center;verticalAlign=middle;resizable=0;points=[];autosize=1;strokeColor=none;fillColor=none;fontSize=16;labelBackgroundColor=default;" vertex="1" parent="1">
          <mxGeometry x="-359.3399999999999" y="3440" width="90" height="30" as="geometry" />
        </mxCell>
        <mxCell id="_6AYf45geY-DSHWMHWZf-207" value="" style="endArrow=classic;html=1;rounded=0;fontSize=13;" edge="1" parent="1">
          <mxGeometry width="50" height="50" relative="1" as="geometry">
            <mxPoint x="-539.3399999999999" y="3490" as="sourcePoint" />
            <mxPoint x="90.66000000000008" y="3500" as="targetPoint" />
          </mxGeometry>
        </mxCell>
        <mxCell id="_6AYf45geY-DSHWMHWZf-208" value="&lt;span style=&quot;font-size: 13px;&quot;&gt;GET_ACK&lt;br&gt;&lt;/span&gt;" style="text;html=1;align=center;verticalAlign=middle;resizable=0;points=[];autosize=1;strokeColor=none;fillColor=none;fontSize=16;labelBackgroundColor=default;" vertex="1" parent="1">
          <mxGeometry x="-310.3399999999999" y="3480" width="80" height="30" as="geometry" />
        </mxCell>
        <mxCell id="_6AYf45geY-DSHWMHWZf-209" value="" style="endArrow=classic;html=1;rounded=0;fontSize=13;" edge="1" parent="1">
          <mxGeometry width="50" height="50" relative="1" as="geometry">
            <mxPoint x="90.66000000000008" y="3520" as="sourcePoint" />
            <mxPoint x="-379.3399999999999" y="3550" as="targetPoint" />
          </mxGeometry>
        </mxCell>
        <mxCell id="_6AYf45geY-DSHWMHWZf-210" value="&lt;span style=&quot;font-size: 13px;&quot;&gt;PUT_ACK&lt;br&gt;&lt;/span&gt;" style="text;html=1;align=center;verticalAlign=middle;resizable=0;points=[];autosize=1;strokeColor=none;fillColor=none;fontSize=16;labelBackgroundColor=default;" vertex="1" parent="1">
          <mxGeometry x="-171.33999999999992" y="3520" width="80" height="30" as="geometry" />
        </mxCell>
        <mxCell id="_6AYf45geY-DSHWMHWZf-211" value="&lt;span style=&quot;font-size: 13px;&quot;&gt;INV&lt;br&gt;&lt;/span&gt;" style="text;html=1;align=center;verticalAlign=middle;resizable=0;points=[];autosize=1;strokeColor=none;fillColor=none;fontSize=16;labelBackgroundColor=default;" vertex="1" parent="1">
          <mxGeometry x="-185.83999999999992" y="3350" width="50" height="30" as="geometry" />
        </mxCell>
        <mxCell id="_6AYf45geY-DSHWMHWZf-212" value="&lt;span style=&quot;font-size: 13px;&quot;&gt;I =&amp;gt; M&lt;br&gt;&lt;/span&gt;" style="text;html=1;align=center;verticalAlign=middle;resizable=0;points=[];autosize=1;strokeColor=none;fillColor=none;fontSize=16;labelBackgroundColor=default;" vertex="1" parent="1">
          <mxGeometry x="-596.3399999999999" y="3470" width="60" height="30" as="geometry" />
        </mxCell>
        <mxCell id="_6AYf45geY-DSHWMHWZf-213" value="&lt;span style=&quot;font-size: 13px;&quot;&gt;M =&amp;gt; I&lt;br&gt;&lt;/span&gt;" style="text;html=1;align=center;verticalAlign=middle;resizable=0;points=[];autosize=1;strokeColor=none;fillColor=none;fontSize=16;labelBackgroundColor=default;" vertex="1" parent="1">
          <mxGeometry x="-435.3399999999999" y="3530" width="60" height="30" as="geometry" />
        </mxCell>
        <mxCell id="_6AYf45geY-DSHWMHWZf-214" value="&lt;span style=&quot;font-size: 13px;&quot;&gt;I =&amp;gt; M&lt;br&gt;&lt;/span&gt;" style="text;html=1;align=center;verticalAlign=middle;resizable=0;points=[];autosize=1;strokeColor=none;fillColor=none;fontSize=16;labelBackgroundColor=default;" vertex="1" parent="1">
          <mxGeometry x="93.66000000000008" y="3480" width="60" height="30" as="geometry" />
        </mxCell>
        <mxCell id="_6AYf45geY-DSHWMHWZf-215" value="" style="rounded=0;whiteSpace=wrap;html=1;sketch=0;fillStyle=auto;strokeWidth=1;fontSize=20;aspect=fixed;" vertex="1" parent="1">
          <mxGeometry x="-690" y="2180" width="933.33" height="700" as="geometry" />
        </mxCell>
        <mxCell id="_6AYf45geY-DSHWMHWZf-216" value="CA 1" style="rounded=0;whiteSpace=wrap;html=1;sketch=0;fillStyle=auto;strokeWidth=1;fontSize=20;" vertex="1" parent="1">
          <mxGeometry x="-557.8300000000002" y="2295" width="107" height="56" as="geometry" />
        </mxCell>
        <mxCell id="_6AYf45geY-DSHWMHWZf-217" value="CA 2" style="rounded=0;whiteSpace=wrap;html=1;sketch=0;fillStyle=auto;strokeWidth=1;fontSize=20;" vertex="1" parent="1">
          <mxGeometry x="-400.08000000000015" y="2295" width="107" height="56" as="geometry" />
        </mxCell>
        <mxCell id="_6AYf45geY-DSHWMHWZf-218" value="CA 3" style="rounded=0;whiteSpace=wrap;html=1;sketch=0;fillStyle=auto;strokeWidth=1;fontSize=20;" vertex="1" parent="1">
          <mxGeometry x="-237.08000000000015" y="2295" width="107" height="56" as="geometry" />
        </mxCell>
        <mxCell id="_6AYf45geY-DSHWMHWZf-219" value="CA 4" style="rounded=0;whiteSpace=wrap;html=1;sketch=0;fillStyle=auto;strokeWidth=1;fontSize=20;" vertex="1" parent="1">
          <mxGeometry x="-87.58000000000015" y="2295" width="107" height="56" as="geometry" />
        </mxCell>
        <mxCell id="_6AYf45geY-DSHWMHWZf-220" value="HA" style="rounded=0;whiteSpace=wrap;html=1;sketch=0;fillStyle=auto;strokeWidth=1;fontSize=20;" vertex="1" parent="1">
          <mxGeometry x="70.91999999999985" y="2295" width="107" height="56" as="geometry" />
        </mxCell>
        <mxCell id="_6AYf45geY-DSHWMHWZf-221" value="" style="endArrow=none;html=1;rounded=0;fontSize=18;strokeWidth=3;exitX=0.5;exitY=1;exitDx=0;exitDy=0;" edge="1" parent="1" source="_6AYf45geY-DSHWMHWZf-216">
          <mxGeometry width="50" height="50" relative="1" as="geometry">
            <mxPoint x="-568.8300000000002" y="2505" as="sourcePoint" />
            <mxPoint x="-503.83000000000015" y="2775" as="targetPoint" />
          </mxGeometry>
        </mxCell>
        <mxCell id="_6AYf45geY-DSHWMHWZf-222" value="" style="endArrow=none;html=1;rounded=0;fontSize=18;strokeWidth=3;exitX=0.5;exitY=1;exitDx=0;exitDy=0;" edge="1" parent="1" source="_6AYf45geY-DSHWMHWZf-217">
          <mxGeometry width="50" height="50" relative="1" as="geometry">
            <mxPoint x="-334.33000000000015" y="2365" as="sourcePoint" />
            <mxPoint x="-346.08000000000015" y="2775" as="targetPoint" />
          </mxGeometry>
        </mxCell>
        <mxCell id="_6AYf45geY-DSHWMHWZf-223" value="" style="endArrow=none;html=1;rounded=0;fontSize=18;strokeWidth=3;exitX=0.5;exitY=1;exitDx=0;exitDy=0;" edge="1" parent="1" source="_6AYf45geY-DSHWMHWZf-218">
          <mxGeometry width="50" height="50" relative="1" as="geometry">
            <mxPoint x="-169.08000000000015" y="2665" as="sourcePoint" />
            <mxPoint x="-183.08000000000015" y="2775" as="targetPoint" />
          </mxGeometry>
        </mxCell>
        <mxCell id="_6AYf45geY-DSHWMHWZf-224" value="" style="endArrow=none;html=1;rounded=0;fontSize=18;strokeWidth=3;exitX=0.5;exitY=1;exitDx=0;exitDy=0;" edge="1" parent="1" source="_6AYf45geY-DSHWMHWZf-219">
          <mxGeometry width="50" height="50" relative="1" as="geometry">
            <mxPoint x="-70.58000000000015" y="2525" as="sourcePoint" />
            <mxPoint x="-34.580000000000155" y="2775" as="targetPoint" />
          </mxGeometry>
        </mxCell>
        <mxCell id="_6AYf45geY-DSHWMHWZf-225" value="" style="endArrow=none;html=1;rounded=0;fontSize=18;strokeWidth=3;exitX=0.5;exitY=1;exitDx=0;exitDy=0;" edge="1" parent="1" source="_6AYf45geY-DSHWMHWZf-220">
          <mxGeometry width="50" height="50" relative="1" as="geometry">
            <mxPoint x="47.419999999999845" y="2595" as="sourcePoint" />
            <mxPoint x="124.41999999999985" y="2775" as="targetPoint" />
          </mxGeometry>
        </mxCell>
        <mxCell id="_6AYf45geY-DSHWMHWZf-226" value="" style="endArrow=classic;html=1;rounded=0;fontSize=16;" edge="1" parent="1">
          <mxGeometry width="50" height="50" relative="1" as="geometry">
            <mxPoint x="-615.0800000000002" y="2375" as="sourcePoint" />
            <mxPoint x="-615.0800000000002" y="2515" as="targetPoint" />
          </mxGeometry>
        </mxCell>
        <mxCell id="_6AYf45geY-DSHWMHWZf-227" value="时间线" style="text;html=1;align=center;verticalAlign=middle;resizable=0;points=[];autosize=1;strokeColor=none;fillColor=none;fontSize=16;" vertex="1" parent="1">
          <mxGeometry x="-681.0800000000002" y="2435" width="70" height="30" as="geometry" />
        </mxCell>
        <mxCell id="_6AYf45geY-DSHWMHWZf-228" value="" style="endArrow=classic;html=1;rounded=0;fontSize=16;exitX=0.5;exitY=1;exitDx=0;exitDy=0;" edge="1" parent="1" source="_6AYf45geY-DSHWMHWZf-216">
          <mxGeometry width="50" height="50" relative="1" as="geometry">
            <mxPoint x="-495.08000000000015" y="2375" as="sourcePoint" />
            <mxPoint x="124.91999999999985" y="2435" as="targetPoint" />
          </mxGeometry>
        </mxCell>
        <mxCell id="_6AYf45geY-DSHWMHWZf-229" value="&lt;span style=&quot;font-size: 13px;&quot;&gt;GET_SharedData&lt;br&gt;&lt;/span&gt;" style="text;html=1;align=center;verticalAlign=middle;resizable=0;points=[];autosize=1;strokeColor=none;fillColor=none;fontSize=16;labelBackgroundColor=default;" vertex="1" parent="1">
          <mxGeometry x="-477.33000000000015" y="2351" width="130" height="30" as="geometry" />
        </mxCell>
        <mxCell id="_6AYf45geY-DSHWMHWZf-230" value="" style="endArrow=classic;html=1;rounded=0;fontSize=13;exitX=0.5;exitY=1;exitDx=0;exitDy=0;" edge="1" parent="1" source="_6AYf45geY-DSHWMHWZf-217">
          <mxGeometry width="50" height="50" relative="1" as="geometry">
            <mxPoint x="-175.08000000000015" y="2505" as="sourcePoint" />
            <mxPoint x="124.91999999999985" y="2415" as="targetPoint" />
          </mxGeometry>
        </mxCell>
        <mxCell id="_6AYf45geY-DSHWMHWZf-231" value="" style="strokeWidth=2;html=1;shape=mxgraph.flowchart.annotation_2;align=left;labelPosition=right;pointerEvents=1;strokeColor=default;fontSize=13;fillColor=#E6E6E6;flipH=1;" vertex="1" parent="1">
          <mxGeometry x="129.91999999999985" y="2415" width="25" height="40" as="geometry" />
        </mxCell>
        <mxCell id="_6AYf45geY-DSHWMHWZf-232" value="查询目录&lt;br&gt;设置新的&lt;br&gt;forwarder" style="text;html=1;align=center;verticalAlign=middle;resizable=0;points=[];autosize=1;strokeColor=none;fillColor=none;fontSize=13;" vertex="1" parent="1">
          <mxGeometry x="144.91999999999985" y="2405" width="80" height="60" as="geometry" />
        </mxCell>
        <mxCell id="_6AYf45geY-DSHWMHWZf-233" value="&lt;span style=&quot;font-size: 13px;&quot;&gt;PUT_SharedData&lt;br&gt;&lt;/span&gt;" style="text;html=1;align=center;verticalAlign=middle;resizable=0;points=[];autosize=1;strokeColor=none;fillColor=none;fontSize=16;labelBackgroundColor=default;" vertex="1" parent="1">
          <mxGeometry x="-315.08000000000015" y="2351" width="130" height="30" as="geometry" />
        </mxCell>
        <mxCell id="_6AYf45geY-DSHWMHWZf-234" value="I" style="text;html=1;align=center;verticalAlign=middle;resizable=0;points=[];autosize=1;strokeColor=none;fillColor=none;fontSize=13;" vertex="1" parent="1">
          <mxGeometry x="-586.8300000000002" y="2308" width="30" height="30" as="geometry" />
        </mxCell>
        <mxCell id="_6AYf45geY-DSHWMHWZf-235" value="S" style="text;html=1;align=center;verticalAlign=middle;resizable=0;points=[];autosize=1;strokeColor=none;fillColor=none;fontSize=13;" vertex="1" parent="1">
          <mxGeometry x="-430.08000000000015" y="2308" width="30" height="30" as="geometry" />
        </mxCell>
        <mxCell id="_6AYf45geY-DSHWMHWZf-236" value="I" style="text;html=1;align=center;verticalAlign=middle;resizable=0;points=[];autosize=1;strokeColor=none;fillColor=none;fontSize=13;" vertex="1" parent="1">
          <mxGeometry x="-267.08000000000015" y="2308" width="30" height="30" as="geometry" />
        </mxCell>
        <mxCell id="_6AYf45geY-DSHWMHWZf-237" value="S" style="text;html=1;align=center;verticalAlign=middle;resizable=0;points=[];autosize=1;strokeColor=none;fillColor=none;fontSize=13;" vertex="1" parent="1">
          <mxGeometry x="-116.08000000000015" y="2308" width="30" height="30" as="geometry" />
        </mxCell>
        <mxCell id="_6AYf45geY-DSHWMHWZf-238" value="S" style="text;html=1;align=center;verticalAlign=middle;resizable=0;points=[];autosize=1;strokeColor=none;fillColor=none;fontSize=13;" vertex="1" parent="1">
          <mxGeometry x="40.919999999999845" y="2308" width="30" height="30" as="geometry" />
        </mxCell>
        <mxCell id="_6AYf45geY-DSHWMHWZf-239" value="&lt;span style=&quot;font-size: 13px;&quot;&gt;S =&amp;gt; I&lt;br&gt;&lt;/span&gt;" style="text;html=1;align=center;verticalAlign=middle;resizable=0;points=[];autosize=1;strokeColor=none;fillColor=none;fontSize=16;labelBackgroundColor=default;" vertex="1" parent="1">
          <mxGeometry x="-402.58000000000015" y="2475" width="60" height="30" as="geometry" />
        </mxCell>
        <mxCell id="_6AYf45geY-DSHWMHWZf-240" value="" style="endArrow=classic;html=1;rounded=0;fontSize=13;" edge="1" parent="1">
          <mxGeometry width="50" height="50" relative="1" as="geometry">
            <mxPoint x="124.91999999999985" y="2465" as="sourcePoint" />
            <mxPoint x="-35.080000000000155" y="2495" as="targetPoint" />
          </mxGeometry>
        </mxCell>
        <mxCell id="_6AYf45geY-DSHWMHWZf-241" value="&lt;span style=&quot;font-size: 13px;&quot;&gt;FWD_SharedData&lt;br&gt;&lt;/span&gt;" style="text;html=1;align=center;verticalAlign=middle;resizable=0;points=[];autosize=1;strokeColor=none;fillColor=none;fontSize=16;labelBackgroundColor=default;" vertex="1" parent="1">
          <mxGeometry x="-10.080000000000155" y="2465" width="130" height="30" as="geometry" />
        </mxCell>
        <mxCell id="_6AYf45geY-DSHWMHWZf-242" value="" style="endArrow=classic;html=1;rounded=0;fontSize=13;entryX=0.958;entryY=0.667;entryDx=0;entryDy=0;entryPerimeter=0;" edge="1" parent="1" target="_6AYf45geY-DSHWMHWZf-239">
          <mxGeometry width="50" height="50" relative="1" as="geometry">
            <mxPoint x="124.91999999999985" y="2455" as="sourcePoint" />
            <mxPoint x="-255.08000000000015" y="2515" as="targetPoint" />
          </mxGeometry>
        </mxCell>
        <mxCell id="_6AYf45geY-DSHWMHWZf-243" value="&lt;span style=&quot;font-size: 13px;&quot;&gt;PUT_ACK&lt;br&gt;&lt;/span&gt;" style="text;html=1;align=center;verticalAlign=middle;resizable=0;points=[];autosize=1;strokeColor=none;fillColor=none;fontSize=16;labelBackgroundColor=default;" vertex="1" parent="1">
          <mxGeometry x="-153.58000000000015" y="2455" width="80" height="30" as="geometry" />
        </mxCell>
        <mxCell id="_6AYf45geY-DSHWMHWZf-244" value="" style="endArrow=classic;html=1;rounded=0;fontSize=13;" edge="1" parent="1">
          <mxGeometry width="50" height="50" relative="1" as="geometry">
            <mxPoint x="-35.080000000000155" y="2505" as="sourcePoint" />
            <mxPoint x="-505.08000000000015" y="2555" as="targetPoint" />
          </mxGeometry>
        </mxCell>
        <mxCell id="_6AYf45geY-DSHWMHWZf-245" value="&lt;span style=&quot;font-size: 13px;&quot;&gt;Data&lt;br&gt;&lt;/span&gt;" style="text;html=1;align=center;verticalAlign=middle;resizable=0;points=[];autosize=1;strokeColor=none;fillColor=none;fontSize=16;labelBackgroundColor=default;" vertex="1" parent="1">
          <mxGeometry x="-295.08000000000015" y="2515" width="50" height="30" as="geometry" />
        </mxCell>
        <mxCell id="_6AYf45geY-DSHWMHWZf-246" value="" style="endArrow=classic;html=1;rounded=0;fontSize=13;" edge="1" parent="1">
          <mxGeometry width="50" height="50" relative="1" as="geometry">
            <mxPoint x="-505.08000000000015" y="2565" as="sourcePoint" />
            <mxPoint x="124.91999999999985" y="2615" as="targetPoint" />
          </mxGeometry>
        </mxCell>
        <mxCell id="_6AYf45geY-DSHWMHWZf-247" value="&lt;span style=&quot;font-size: 13px;&quot;&gt;GET_ACK&lt;br&gt;&lt;/span&gt;" style="text;html=1;align=center;verticalAlign=middle;resizable=0;points=[];autosize=1;strokeColor=none;fillColor=none;fontSize=16;labelBackgroundColor=default;" vertex="1" parent="1">
          <mxGeometry x="-270.08000000000015" y="2575" width="80" height="30" as="geometry" />
        </mxCell>
        <mxCell id="_6AYf45geY-DSHWMHWZf-248" value="&lt;span style=&quot;font-size: 13px;&quot;&gt;I =&amp;gt; S&lt;br&gt;&lt;/span&gt;" style="text;html=1;align=center;verticalAlign=middle;resizable=0;points=[];autosize=1;strokeColor=none;fillColor=none;fontSize=16;labelBackgroundColor=default;" vertex="1" parent="1">
          <mxGeometry x="-563.0800000000002" y="2535" width="60" height="30" as="geometry" />
        </mxCell>
        <mxCell id="_6AYf45geY-DSHWMHWZf-249" value="" style="strokeWidth=2;html=1;shape=mxgraph.flowchart.annotation_2;align=left;labelPosition=right;pointerEvents=1;strokeColor=default;fontSize=13;fillColor=#E6E6E6;flipH=1;" vertex="1" parent="1">
          <mxGeometry x="131.41999999999985" y="2465" width="25" height="150" as="geometry" />
        </mxCell>
        <mxCell id="_6AYf45geY-DSHWMHWZf-250" value="阻塞" style="text;html=1;align=center;verticalAlign=middle;resizable=0;points=[];autosize=1;strokeColor=none;fillColor=none;fontSize=13;" vertex="1" parent="1">
          <mxGeometry x="154.91999999999985" y="2525" width="50" height="30" as="geometry" />
        </mxCell>
      </root>
    </mxGraphModel>
  </diagram>
</mxfile>
